<svg xmlns="http://www.w3.org/2000/svg" width="146.913" height="24" viewBox="48 70.999 146.913 24"><g data-name="Multiple Layers (9)"><path d="M68.193 80.405a6.557 6.557 0 0 0-1.625-1.656 8.545 8.545 0 0 0-2.112-1.085 12.813 12.813 0 0 0-2.497-.597 20.207 20.207 0 0 0-2.787-.186H48v17.644h11.197c.968 0 1.897-.063 2.787-.186.89-.124 1.721-.324 2.491-.598a8.35 8.35 0 0 0 2.1-1.091 6.74 6.74 0 0 0 1.618-1.657c.45-.65.797-1.414 1.047-2.292.248-.877.372-1.881.372-3.011 0-1.122-.124-2.119-.372-2.992-.25-.873-.598-1.637-1.047-2.293m-3.71 7.494a3.568 3.568 0 0 1-1.054 1.56c-.484.415-1.115.723-1.894.924-.78.202-1.73.302-2.851.302h-5.92V80.72h5.92c1.12 0 2.071.101 2.85.302.78.201 1.41.505 1.895.912.484.406.834.922 1.053 1.547.218.625.327 1.362.327 2.209 0 .848-.11 1.583-.327 2.209" fill="#fff" fill-rule="evenodd" data-name="Tracé 1135"/><path d="M88.111 78.063c-.903-.514-1.98-.893-3.23-1.137s-2.615-.366-4.096-.366c-.754 0-1.54.032-2.363.096-.822.065-1.635.15-2.44.257a38.647 38.647 0 0 0-4.34.828v4.238a23.664 23.664 0 0 1 1.913-.642 25.438 25.438 0 0 1 2.228-.54 28.165 28.165 0 0 1 2.44-.365 24.12 24.12 0 0 1 2.562-.135c1.096 0 1.997.069 2.703.205.706.137 1.263.315 1.67.533.406.218.686.471.84.758.155.287.232.576.232.867v.372c-2.791.154-5.208.368-7.25.642-2.041.274-3.73.664-5.065 1.169-1.335.505-2.328 1.154-2.98 1.945-.65.792-.975 1.784-.975 2.973 0 .942.208 1.738.623 2.389.414.65.965 1.177 1.65 1.579.684.403 1.47.693 2.356.873.886.18 1.805.27 2.755.27.813 0 1.62-.045 2.421-.135a19.454 19.454 0 0 0 4.507-1.06 14.43 14.43 0 0 0 1.958-.885v1.733h4.764V82.827c0-1.087-.255-2.025-.764-2.812-.51-.788-1.215-1.439-2.119-1.952M86.23 88.797c-.015.011-.033.02-.048.031-.22.158-.447.305-.682.436-.265.156-.546.306-.843.452a13.37 13.37 0 0 1-1.882.745c-.667.21-1.373.374-2.118.494-.744.12-1.507.18-2.286.18-.702 0-1.285-.043-1.747-.128-.462-.086-.832-.201-1.11-.347-.279-.146-.474-.315-.585-.508a1.176 1.176 0 0 1-.166-.596c0-.172.027-.36.083-.566.056-.205.203-.41.443-.616.24-.205.601-.407 1.085-.603.484-.197 1.15-.381 1.997-.553.847-.171 1.911-.32 3.191-.449a76.094 76.094 0 0 1 4.668-.295v1.038c.691-.357 1.31-.853 1.73-1.495.292-.406.452-.89.593-1.389.017 1.71-.972 3.179-2.323 4.169" fill="#fff" fill-rule="evenodd" data-name="Tracé 1136"/><path d="M91.15 71h3.993v3.994H91.15V71z" fill="#fff" fill-rule="evenodd" data-name="Rectangle 1656"/><path d="M93.756 76.88h4.764v17.645h-4.764V76.881z" fill="#fff" fill-rule="evenodd" data-name="Rectangle 1657"/><path d="M97.082 71h4.007v3.993h-4.007V71z" fill="#fff" fill-rule="evenodd" data-name="Rectangle 1658"/><path d="M121.226 89.556a9.048 9.048 0 0 0-1.561-1.683 10.28 10.28 0 0 0-1.816-1.214 11.764 11.764 0 0 0-1.92-.795 13.265 13.265 0 0 0-1.869-.443 11.744 11.744 0 0 0 3.159-1.278c.547-.321 1.082-.704 1.605-1.15a8.569 8.569 0 0 0 1.418-1.56c.424-.595.78-1.27 1.067-2.022.287-.754.472-1.596.558-2.53h-4.854c-.086.848-.3 1.603-.641 2.266a6.836 6.836 0 0 1-1.285 1.753 7.654 7.654 0 0 1-1.747 1.285c-.65.35-1.328.637-2.035.86-.706.223-1.418.385-2.138.488-.72.103-1.408.154-2.067.154h-.976V76.88h-4.764v17.644h4.764v-6.033c-.782-.224-1.613-.287-2.39-.084-.49.105-.933.356-1.373.63.964-1.084 2.348-1.55 3.763-1.56v-.003h1.412c.642 0 1.338.04 2.087.122.75.081 1.5.223 2.254.424.753.201 1.487.473 2.201.815a7.834 7.834 0 0 1 1.927 1.298 6.708 6.708 0 0 1 1.418 1.868c.378.724.609 1.564.695 2.523h4.854c-.086-1.027-.283-1.952-.59-2.773a9.426 9.426 0 0 0-1.156-2.196" fill="#fff" fill-rule="evenodd" data-name="Tracé 1137"/><path d="M143.981 78.794c-1.036-.778-2.292-1.367-3.769-1.766-1.477-.398-3.135-.596-4.975-.596-1.841 0-3.504.198-4.99.596-1.485.399-2.75.988-3.794 1.766a7.889 7.889 0 0 0-2.414 2.909c-.565 1.16-.848 2.497-.848 4.013 0 1.515.283 2.853.848 4.013a7.884 7.884 0 0 0 2.414 2.908c1.044.78 2.31 1.368 3.795 1.766 1.485.398 3.148.597 4.989.597 1.84 0 3.498-.2 4.975-.597 1.477-.398 2.733-.987 3.769-1.766a7.82 7.82 0 0 0 2.389-2.908c.556-1.16.834-2.498.834-4.013 0-1.516-.278-2.853-.834-4.013a7.824 7.824 0 0 0-2.389-2.909m-1.906 8.893c-.21.655-.583 1.243-1.118 1.766-.535.522-1.265.946-2.19 1.271-.924.325-2.1.488-3.53.488-.96 0-1.803-.075-2.53-.225-.728-.15-1.358-.355-1.888-.616a5.113 5.113 0 0 1-1.335-.918 4.532 4.532 0 0 1-.86-1.137 4.739 4.739 0 0 1-.457-1.278 6.657 6.657 0 0 1-.135-1.322c0-.428.045-.863.135-1.303a4.638 4.638 0 0 1 1.317-2.415 5.154 5.154 0 0 1 1.335-.93c.53-.266 1.16-.474 1.888-.624.727-.15 1.57-.225 2.53-.225 1.43 0 2.606.164 3.53.489.925.325 1.655.749 2.19 1.271.535.522.908 1.11 1.118 1.766.209.654.314 1.311.314 1.971 0 .66-.105 1.316-.314 1.97" fill="#fff" fill-rule="evenodd" data-name="Tracé 1138"/><path d="M168.471 78.794c-1.036-.778-2.292-1.367-3.768-1.766-1.478-.398-3.137-.596-4.977-.596-1.84 0-3.504.198-4.99.596-1.483.399-2.749.988-3.794 1.766a7.895 7.895 0 0 0-2.414 2.909c-.565 1.16-.847 2.497-.847 4.013 0 1.515.282 2.853.847 4.013a7.89 7.89 0 0 0 2.414 2.908c1.045.78 2.31 1.368 3.795 1.766 1.485.398 3.149.597 4.99.597 1.84 0 3.498-.2 4.976-.597 1.476-.398 2.732-.987 3.768-1.766a7.845 7.845 0 0 0 2.39-2.908c.555-1.16.833-2.498.833-4.013 0-1.516-.278-2.853-.834-4.013a7.85 7.85 0 0 0-2.389-2.909m-1.906 8.893c-.21.655-.583 1.243-1.118 1.766-.535.522-1.265.946-2.19 1.271-.924.325-2.101.488-3.53.488-.96 0-1.804-.075-2.531-.225-.728-.15-1.357-.355-1.887-.616a5.138 5.138 0 0 1-1.335-.918 4.543 4.543 0 0 1-1.317-2.415 6.662 6.662 0 0 1-.136-1.322c0-.428.046-.863.136-1.303.09-.441.242-.865.455-1.272.215-.406.501-.788.862-1.143a5.18 5.18 0 0 1 1.335-.93c.53-.266 1.159-.474 1.887-.624.727-.15 1.572-.225 2.53-.225 1.43 0 2.607.164 3.531.489.925.325 1.655.749 2.19 1.271.535.522.908 1.11 1.118 1.766.208.654.313 1.311.313 1.971 0 .66-.105 1.316-.313 1.97" fill="#fff" fill-rule="evenodd" data-name="Tracé 1139"/><path d="M194.393 79.995a5.297 5.297 0 0 0-1.496-1.914c-.65-.526-1.445-.932-2.382-1.22-.937-.286-2.002-.43-3.191-.43-.95 0-1.854.087-2.71.258-.856.17-1.665.393-2.427.667-.761.274-1.48.58-2.158.918-.676.338-1.314.679-1.912 1.021v-2.414h-4.764v17.644h4.764V83.456c.496-.42 1.062-.823 1.7-1.207a15.008 15.008 0 0 1 4.136-1.715 8.573 8.573 0 0 1 2.048-.263c.856 0 1.556.105 2.1.315.543.21.966.505 1.271.885.303.382.512.84.623 1.375a8.84 8.84 0 0 1 .166 1.791v9.888h4.752v-12.02c0-.924-.174-1.76-.52-2.51" fill="#fff" fill-rule="evenodd" data-name="Tracé 1140"/></g></svg>