<svg xmlns="http://www.w3.org/2000/svg" xmlns:xlink="http://www.w3.org/1999/xlink" viewBox="0 0 34 37">
  <defs>
    <clipPath id="clip-path">
      <rect id="Rectangle_1810" data-name="Rectangle 1810" width="34" height="37" transform="translate(0 0)" fill="currentColor"/>
    </clipPath>
  </defs>
  <g id="Groupe_1840" data-name="Groupe 1840" transform="translate(-21 -17)">
    <g id="Groupe_1706" data-name="Groupe 1706" transform="translate(21 17)">
      <g id="Groupe_1674" data-name="Groupe 1674" clip-path="url(#clip-path)">
        <path id="Tracé_1574" data-name="Tracé 1574" d="M29.076,7.789h-4.8v-2.1A5.7,5.7,0,0,0,18.572,0H5.706A5.7,5.7,0,0,0,0,5.685V30.321a5.7,5.7,0,0,0,5.706,5.685H18.572a5.7,5.7,0,0,0,5.707-5.685V23.288h4.8a3.326,3.326,0,0,0,3.329-3.316V11.106a3.325,3.325,0,0,0-3.329-3.317m-6.7,22.531a3.8,3.8,0,0,1-3.8,3.79H5.706a3.8,3.8,0,0,1-3.8-3.79V5.685a3.8,3.8,0,0,1,3.8-3.79H18.572a3.8,3.8,0,0,1,3.8,3.79v2.1H15.161a3.326,3.326,0,0,0-3.329,3.317v8.866a3.222,3.222,0,0,0,3.109,3.316h1.327v4.378l4.441-4.378h1.667v7.032ZM30.5,19.972a1.426,1.426,0,0,1-1.427,1.422h-8.62c-.023,0-.045,0-.066.006a.952.952,0,0,0-.74.267l-1.479,1.46v-.785a.949.949,0,0,0-.951-.947c-.021,0-.04,0-.061.006s-.039-.006-.06-.006H14.941a1.346,1.346,0,0,1-1.208-1.422V11.106a1.426,1.426,0,0,1,1.427-1.422H29.076A1.426,1.426,0,0,1,30.5,11.106v8.866Z" transform="translate(0.701 0.534)" fill="currentColor"/>
        <path id="Tracé_1574_-_Contour" data-name="Tracé 1574 - Contour" d="M5.706-.25H18.572a5.953,5.953,0,0,1,5.957,5.935V7.539h4.548a3.577,3.577,0,0,1,3.579,3.567v8.866a3.576,3.576,0,0,1-3.579,3.566H24.529v6.782a5.953,5.953,0,0,1-5.957,5.935H5.706A5.952,5.952,0,0,1-.25,30.321V5.685A5.952,5.952,0,0,1,5.706-.25Zm23.37,23.288a3.076,3.076,0,0,0,3.079-3.066V11.106a3.076,3.076,0,0,0-3.079-3.067H24.029V5.685A5.452,5.452,0,0,0,18.572.25H5.706A5.452,5.452,0,0,0,.25,5.685V30.321a5.452,5.452,0,0,0,5.456,5.435H18.572a5.452,5.452,0,0,0,5.457-5.435V23.038ZM5.706,1.645H18.572a4.052,4.052,0,0,1,4.055,4.04V8.039H15.161a3.076,3.076,0,0,0-3.079,3.067v8.866a2.971,2.971,0,0,0,2.859,3.066h1.577v4.031l4.088-4.031h2.02v7.282a4.052,4.052,0,0,1-4.055,4.04H5.706a4.052,4.052,0,0,1-4.054-4.04V5.685A4.052,4.052,0,0,1,5.706,1.645ZM22.127,7.539V5.685a3.552,3.552,0,0,0-3.555-3.54H5.706a3.552,3.552,0,0,0-3.554,3.54V30.321a3.551,3.551,0,0,0,3.554,3.54H18.572a3.552,3.552,0,0,0,3.555-3.489V23.538H20.812l-4.793,4.726V23.538H14.941a3.471,3.471,0,0,1-3.359-3.566V11.106a3.577,3.577,0,0,1,3.579-3.567Zm-6.966,1.9H29.076a1.676,1.676,0,0,1,1.677,1.672v8.866a1.676,1.676,0,0,1-1.677,1.672h-8.62l-.01,0-.034,0-.019,0h-.02a.706.706,0,0,0-.547.2l-1.9,1.879V22.342a.7.7,0,0,0-.7-.7h-.008l-.036,0-.022,0-.022,0-.036,0H14.941a1.6,1.6,0,0,1-1.458-1.672V11.106A1.676,1.676,0,0,1,15.161,9.435ZM30.253,20v-8.9a1.176,1.176,0,0,0-1.177-1.172H15.161a1.176,1.176,0,0,0-1.177,1.172v8.866a1.1,1.1,0,0,0,.958,1.172H17.1a.431.431,0,0,0,.121,0,1.2,1.2,0,0,1,1.2,1.2v.188l1.054-1.04a1.2,1.2,0,0,1,.909-.34.546.546,0,0,1,.072-.005h8.62A1.176,1.176,0,0,0,30.253,20Z" transform="translate(0.701 0.534)" fill="currentColor"/>
        <path id="Tracé_1575" data-name="Tracé 1575" d="M45.841,28.222H37.1a.947.947,0,1,0,0,1.894h8.742a.947.947,0,1,0,0-1.894" transform="translate(-19.178 -14.986)" fill="currentColor"/>
        <path id="Tracé_1575_-_Contour" data-name="Tracé 1575 - Contour" d="M45.841,30.366H37.1a1.2,1.2,0,1,1,0-2.394h8.742a1.2,1.2,0,1,1,0,2.394ZM37.1,28.472a.7.7,0,1,0,0,1.394h8.742a.7.7,0,1,0,0-1.394Z" transform="translate(-19.178 -14.986)" fill="currentColor"/>
        <path id="Tracé_1576" data-name="Tracé 1576" d="M41.47,37.695H37.1a.948.948,0,1,0,0,1.9h4.37a.948.948,0,1,0,0-1.9" transform="translate(-19.178 -20.195)" fill="currentColor"/>
        <path id="Tracé_1576_-_Contour" data-name="Tracé 1576 - Contour" d="M41.47,39.84H37.1a1.2,1.2,0,1,1,0-2.4h4.37a1.2,1.2,0,1,1,0,2.4Zm-4.37-1.9a.7.7,0,1,0,0,1.4h4.37a.7.7,0,1,0,0-1.4Z" transform="translate(-19.178 -20.195)" fill="currentColor"/>
        <path id="Tracé_1577" data-name="Tracé 1577" d="M26.424,65.291a1.093,1.093,0,1,1-1.1,1.093,1.1,1.1,0,0,1,1.1-1.093" transform="translate(-13.227 -35.371)" fill="currentColor"/>
        <path id="Tracé_1577_-_Contour" data-name="Tracé 1577 - Contour" d="M26.424,67.727a1.343,1.343,0,1,1,1.347-1.343A1.347,1.347,0,0,1,26.424,67.727Zm0-2.186a.843.843,0,1,0,.847.843A.846.846,0,0,0,26.424,65.541Z" transform="translate(-13.227 -35.371)" fill="currentColor"/>
      </g>
    </g>
  </g>
</svg>
