<svg xmlns="http://www.w3.org/2000/svg" width="32.405" height="36.006" viewBox="1140.701 5264.534 32.405 36.006"><g data-name="Multiple Layers (4)"><g data-name="Tracé 1574"><path d="M1169.778 5272.323h-4.798v-2.104c0-3.135-2.56-5.685-5.707-5.685h-12.866c-3.146 0-5.706 2.55-5.706 5.685v24.636c0 3.135 2.56 5.685 5.706 5.685h12.866c3.146 0 5.707-2.55 5.707-5.685v-7.032h4.798a3.326 3.326 0 0 0 3.328-3.317v-8.866a3.325 3.325 0 0 0-3.328-3.317m-6.7 22.532c0 2.09-1.707 3.79-3.805 3.79h-12.866c-2.098 0-3.804-1.7-3.804-3.79v-24.636c0-2.09 1.706-3.79 3.804-3.79h12.866c2.097 0 3.805 1.7 3.805 3.79v2.104h-7.216a3.326 3.326 0 0 0-3.328 3.317v8.866c0 1.83 1.395 3.317 3.109 3.317h1.327v4.378l4.44-4.378h1.668v7.032Zm8.126-10.349c0 .785-.64 1.422-1.426 1.422h-8.62c-.023 0-.045.005-.066.006a.952.952 0 0 0-.74.267l-1.48 1.46v-.785a.949.949 0 0 0-.95-.947c-.02 0-.04.004-.06.006-.021-.002-.04-.006-.061-.006h-2.158c-.655 0-1.208-.652-1.208-1.422v-8.867c0-.784.64-1.421 1.427-1.421h13.915c.787 0 1.427.637 1.427 1.421v8.866Z" fill="#fff" fill-rule="evenodd"/><path d="M1169.778 5272.323h-4.798v-2.104c0-3.135-2.56-5.685-5.707-5.685h-12.866c-3.146 0-5.706 2.55-5.706 5.685v24.636c0 3.135 2.56 5.685 5.706 5.685h12.866c3.146 0 5.707-2.55 5.707-5.685v-7.032h4.798a3.326 3.326 0 0 0 3.328-3.317v-8.866a3.325 3.325 0 0 0-3.328-3.317m-6.7 22.532c0 2.09-1.707 3.79-3.805 3.79h-12.866c-2.098 0-3.804-1.7-3.804-3.79v-24.636c0-2.09 1.706-3.79 3.804-3.79h12.866c2.097 0 3.805 1.7 3.805 3.79v2.104h-7.216a3.326 3.326 0 0 0-3.328 3.317v8.866c0 1.83 1.395 3.317 3.109 3.317h1.327v4.378l4.44-4.378h1.668v7.032h0Zm8.126-10.349c0 .785-.64 1.422-1.426 1.422h-8.62c-.023 0-.045.005-.066.006a.952.952 0 0 0-.74.267l-1.48 1.46v-.785a.949.949 0 0 0-.95-.947c-.02 0-.04.004-.06.006-.021-.002-.04-.006-.061-.006h-2.158c-.655 0-1.208-.652-1.208-1.422v-8.867c0-.784.64-1.421 1.427-1.421h13.915c.787 0 1.427.637 1.427 1.421v8.866h0Z" stroke-linejoin="round" stroke-linecap="round" stroke-width=".5" stroke="#fff" fill="transparent"/></g><g data-name="Tracé 1575"><path d="M1166.664 5277.236h-8.742a.95.95 0 0 0-.952.947.95.95 0 0 0 .952.947h8.742c.525 0 .95-.424.95-.947a.949.949 0 0 0-.95-.947" fill="#fff" fill-rule="evenodd"/><path d="M1166.664 5277.236h-8.742a.95.95 0 0 0-.952.947.95.95 0 0 0 .952.947h8.742c.525 0 .95-.424.95-.947a.949.949 0 0 0-.95-.947" stroke-linejoin="round" stroke-linecap="round" stroke-width=".5" stroke="#fff" fill="transparent"/></g><g data-name="Tracé 1576"><path d="M1162.292 5281.5h-4.37a.95.95 0 0 0-.952.947.95.95 0 0 0 .952.948h4.37a.95.95 0 0 0 .952-.948.95.95 0 0 0-.952-.948" fill="#fff" fill-rule="evenodd"/><path d="M1162.292 5281.5h-4.37a.95.95 0 0 0-.952.947.95.95 0 0 0 .952.948h4.37a.95.95 0 0 0 .952-.948.95.95 0 0 0-.952-.948" stroke-linejoin="round" stroke-linecap="round" stroke-width=".5" stroke="#fff" fill="transparent"/></g><g data-name="Tracé 1577"><path d="M1153.197 5293.92c.606 0 1.098.489 1.098 1.093 0 .603-.492 1.093-1.098 1.093-.605 0-1.097-.49-1.097-1.093 0-.604.492-1.093 1.097-1.093" fill="#fff" fill-rule="evenodd"/><path d="M1153.197 5293.92c.606 0 1.098.489 1.098 1.093 0 .603-.492 1.093-1.098 1.093-.605 0-1.097-.49-1.097-1.093 0-.604.492-1.093 1.097-1.093" stroke-linejoin="round" stroke-linecap="round" stroke-width=".5" stroke="#fff" fill="transparent"/></g></g></svg>