<svg xmlns="http://www.w3.org/2000/svg" width="31.56" height="42.383" viewBox="462.72 8207.314 31.56 42.383"><g data-name="Multiple Layers (6)"><path d="m494.202 8220.318-1.205-6.015a.476.476 0 0 0-.471-.384h-17.681l3.072-1.704a.484.484 0 0 0 .187-.656c-5.671-9.307-19.22-1.789-14.344 7.95.087.16.251.251.425.251.034.11 2.051-1.092 2.138-1.117 0 .008 2.869-1.594 2.874-1.594l-.655 3.27a3.694 3.694 0 0 0 1.372 3.64l9.057 6.899c.255.193.55.326.858.404.13 4.753.135 9.534.014 14.296 0 .699-.63 1.309-1.334 1.294h-2.62a2.365 2.365 0 0 0-2.364 2.364c0 .265.217.482.482.482h14.74a.483.483 0 0 0 .482-.482 2.365 2.365 0 0 0-2.363-2.364h-2.62c-.333 0-.656-.124-.901-.352a1.32 1.32 0 0 1-.434-.944 320.86 320.86 0 0 1-.08-4.738c-.024-3.17.008-6.38.091-9.558.31-.081.602-.21.858-.404l9.057-6.9a3.69 3.69 0 0 0 1.372-3.64l-.007.002Zm-1.508-2.638H470.05l.558-2.802h21.523l.558 2.802h.005Zm-17.594-5.007-2.245 1.243h-.962l.887-3.082a4.986 4.986 0 0 1 2.32 1.839m-4.204 1.243h-.303l-1.67-3.014a4.922 4.922 0 0 1 2.938-.332l-.959 3.346h-.006Zm-2.822-2.548 1.656 2.985-.063.308-3.433-.982a4.984 4.984 0 0 1 1.84-2.317v.006Zm-2.104 3.241 3.505 1.006-.038.197-3.14 1.739a5.01 5.01 0 0 1-.332-2.942h.005Zm-1.588 4.005c-3.568-8.272 7.52-14.41 12.634-7.001l-1.075.598c-1.637-2.571-5.277-3.473-7.921-1.936-2.696 1.43-3.877 4.992-2.557 7.743l-1.078.598-.003-.002Zm19.856 29.204h2.62c.602 0 1.118.385 1.315.92h-13.602a1.406 1.406 0 0 1 1.315-.92h2.62c.572 0 1.126-.21 1.55-.6a2.307 2.307 0 0 0 .746-1.633 272.249 272.249 0 0 0-.005-14.24h1.16a272.77 272.77 0 0 0-.004 14.24c.008 1.204 1.083 2.259 2.296 2.233h-.01Zm8.003-24.625-9.058 6.9a1.433 1.433 0 0 1-.875.294h-1.887c-.312 0-.627-.107-.876-.294l-9.057-6.9a2.729 2.729 0 0 1-1.017-2.681l.37-1.863h23.032l.37 1.863a2.714 2.714 0 0 1-1.017 2.681h.015Z" fill="#fff" fill-rule="evenodd" data-name="Tracé 1606"/><path d="M488.178 8223.357c-.014.948-1.43.948-1.444 0 .014-.948 1.43-.948 1.444 0" fill="#fff" fill-rule="evenodd" data-name="Tracé 1611"/><path d="M485.347 8223.68c-.015.948-1.43.948-1.445 0 .015-.948 1.43-.948 1.445 0" fill="#fff" fill-rule="evenodd" data-name="Tracé 1610"/><path d="M489.854 8221.084c-.015.948-1.43.948-1.445 0 .014-.948 1.43-.948 1.445 0" fill="#fff" fill-rule="evenodd" data-name="Tracé 1609"/><path d="M483.902 8220.78c-.014.949-1.43.949-1.444 0 .014-.947 1.43-.947 1.444 0" fill="#fff" fill-rule="evenodd" data-name="Tracé 1608"/><path d="M486.531 8221.084c-.014.948-1.43.948-1.444 0 .014-.948 1.43-.948 1.444 0" fill="#fff" fill-rule="evenodd" data-name="Tracé 1607"/></g></svg>