<svg xmlns="http://www.w3.org/2000/svg" xmlns:xlink="http://www.w3.org/1999/xlink" viewBox="0 0 31.559 42.383">
  <defs>
    <clipPath id="clip-path">
      <rect id="Rectangle_1838" data-name="Rectangle 1838" width="31.559" height="42.383" fill="none"/>
    </clipPath>
  </defs>
  <g id="Groupe_1825" data-name="Groupe 1825" clip-path="url(#clip-path)">
    <path id="Tracé_1606" data-name="Tracé 1606" d="M31.482,13l-1.2-6.015a.476.476,0,0,0-.471-.385H12.125L15.2,4.9a.484.484,0,0,0,.188-.655C9.712-5.062-3.837,2.456,1.04,12.2a.481.481,0,0,0,.424.251A20.232,20.232,0,0,0,3.6,11.328c0,.008,2.869-1.594,2.875-1.594L5.822,13a3.694,3.694,0,0,0,1.372,3.64l9.057,6.9a2.369,2.369,0,0,0,.857.4c.13,4.752.135,9.534.014,14.3a1.337,1.337,0,0,1-1.334,1.295h-2.62A2.365,2.365,0,0,0,10.805,41.9a.483.483,0,0,0,.482.482h14.74a.483.483,0,0,0,.482-.482,2.365,2.365,0,0,0-2.363-2.363h-2.62a1.34,1.34,0,0,1-1.335-1.3c-.038-1.58-.067-3.172-.081-4.738-.024-3.169.009-6.379.092-9.557a2.438,2.438,0,0,0,.857-.4l9.057-6.9A3.691,3.691,0,0,0,31.489,13Zm-1.507-2.639H7.33l.558-2.8H29.411l.558,2.8ZM12.38,5.358,10.135,6.6H9.173l.887-3.082a4.986,4.986,0,0,1,2.32,1.839M8.176,6.6h-.3L6.2,3.587a4.922,4.922,0,0,1,2.938-.331L8.182,6.6ZM5.354,4.054,7.01,7.038l-.063.309L3.514,6.365a4.984,4.984,0,0,1,1.84-2.317ZM3.25,7.295,6.755,8.3l-.038.2-3.14,1.739a5.009,5.009,0,0,1-.332-2.941Zm-1.589,4A7.241,7.241,0,0,1,14.3,4.3l-1.074.6A6.009,6.009,0,0,0,2.743,10.7l-1.078.6ZM21.518,40.5h2.62a1.406,1.406,0,0,1,1.315.919h-13.6a1.406,1.406,0,0,1,1.315-.919h2.62a2.3,2.3,0,0,0,2.3-2.234c.038-1.584.067-3.183.081-4.758.024-3.154,0-6.336-.086-9.482h1.161c-.081,3.154-.116,6.342-.086,9.482.014,1.574.038,3.172.081,4.758a2.31,2.31,0,0,0,2.3,2.234Zm8-24.625-9.057,6.9a1.433,1.433,0,0,1-.876.294H17.7a1.477,1.477,0,0,1-.875-.294l-9.057-6.9A2.729,2.729,0,0,1,6.751,13.2l.37-1.863H30.153l.37,1.863a2.714,2.714,0,0,1-1.016,2.681Z" transform="translate(0 0)" fill="currentColor"/>
    <path id="Tracé_1607" data-name="Tracé 1607" d="M49.831,28.961a.722.722,0,0,1-1.445,0,.722.722,0,0,1,1.445,0" transform="translate(-26.02 -15.192)" fill="currentColor"/>
    <path id="Tracé_1608" data-name="Tracé 1608" d="M44.144,28.3a.722.722,0,0,1-1.445,0,.722.722,0,0,1,1.445,0" transform="translate(-22.962 -14.839)" fill="currentColor"/>
    <path id="Tracé_1609" data-name="Tracé 1609" d="M57.019,28.961a.722.722,0,0,1-1.445,0,.722.722,0,0,1,1.445,0" transform="translate(-29.885 -15.192)" fill="currentColor"/>
    <path id="Tracé_1610" data-name="Tracé 1610" d="M47.269,34.578a.722.722,0,0,1-1.445,0,.722.722,0,0,1,1.445,0" transform="translate(-24.642 -18.212)" fill="currentColor"/>
    <path id="Tracé_1611" data-name="Tracé 1611" d="M53.394,33.879a.722.722,0,0,1-1.445,0,.722.722,0,0,1,1.445,0" transform="translate(-27.936 -17.836)" fill="currentColor"/>
  </g>
</svg>
