<svg xmlns="http://www.w3.org/2000/svg" width="43.671" height="36.918"><path d="M40.779 1.298c-.014.006-1.37.581-3.574.581h-7.857c-3.213 0-5.623 1.323-7.163 3.933l-.247.507c-.128 0-.26 0-.392.004l-.197-.465-.53-.923a6.168 6.168 0 0 0-5.322-3.07h-9.03c-2.206 0-3.562-.575-3.571-.578L0 0 1.076 2.98c1.016 2.8 3.044 4.41 6.197 4.913.78 1.005 2.216 2.509 4.251 3.248-1.947 2.29-3.081 5.127-3.217 8.083-.206 4.495 2.033 8.63 6.654 12.288a60.175 60.175 0 0 1 5.358 4.777c.394.4.941.63 1.502.63h.023a2.088 2.088 0 0 0 1.51-.662c1.007-1.07 2.311-2.362 5.018-4.566 3.26-2.654 7.001-6.397 7.001-11.832 0-3.165-1.151-6.294-3.185-8.72 2.015-.745 3.437-2.237 4.21-3.233 3.153-.504 5.182-2.113 6.197-4.914L43.671.013l-2.892 1.285ZM11.383 8.076C10.1 7.3 9.308 6.193 9.308 6.193S7 5.525 5.598 4.54c.286.016.576.025.868.025h8.152l.04-.002c2.217-.152 3.153.628 4.062 2.125a11.632 11.632 0 0 0-1.967.64l-1.537.747c-.43.245-.85.516-1.255.81a4.444 4.444 0 0 1-1.307-.208 5.34 5.34 0 0 1-1.27-.602m15.28 21.517c-2.529 2.058-3.9 3.375-4.844 4.369a63.401 63.401 0 0 0-5.18-4.572c-2.794-2.212-4.513-4.469-5.24-6.884 2.801-1.292 6.57-2.028 10.434-2.028 3.86 0 7.626.735 10.427 2.025-.936 2.984-3.341 5.253-5.597 7.09m6.003-9.86c-3.072-1.268-6.88-1.96-10.833-1.96-3.953 0-7.761.692-10.834 1.96 0-.13.004-.258.01-.386.249-5.44 4.698-9.966 10.129-10.302a10.784 10.784 0 0 1 8.113 2.916 10.731 10.731 0 0 1 3.415 7.771m1.722-13.54s-.791 1.108-2.075 1.884l-.103.058c-.786.486-1.597.744-2.426.764a13.604 13.604 0 0 0-1.245-.81h.012l-.07-.012-1.537-.748.001-.02-.001.002a13.22 13.22 0 0 0-2.052-.647c1.405-1.755 2.913-2.085 5.308-2.085h7.004l.172-.002.723-.035c-1.402.984-3.711 1.652-3.711 1.652" fill="#fff" fill-rule="evenodd" data-name="Tracé 1332"/></svg>