<svg id="Groupe_1551" data-name="Groupe 1551" xmlns="http://www.w3.org/2000/svg" xmlns:xlink="http://www.w3.org/1999/xlink" viewBox="0 0 43.671 36.918">
  <defs>
    <clipPath id="clip-path">
      <rect id="Rectangle_1712" data-name="Rectangle 1712" width="43.671" height="36.918" fill="currentColor"/>
    </clipPath>
  </defs>
  <g id="Groupe_1171" data-name="Groupe 1171" clip-path="url(#clip-path)">
    <path id="Tracé_1332" data-name="Tracé 1332" d="M40.779,1.3A9.875,9.875,0,0,1,37.2,1.88H29.348a7.774,7.774,0,0,0-7.163,3.933l-.247.507c-.128,0-.259,0-.392,0l-.2-.464-.53-.924A6.168,6.168,0,0,0,15.5,1.867H6.466A9.9,9.9,0,0,1,2.9,1.287L0,0,1.076,2.98a7.248,7.248,0,0,0,6.2,4.913,9.858,9.858,0,0,0,4.251,3.249,13.441,13.441,0,0,0-3.217,8.083c-.206,4.495,2.033,8.629,6.654,12.288a60.175,60.175,0,0,1,5.357,4.777,2.123,2.123,0,0,0,1.5.63h.023a2.088,2.088,0,0,0,1.51-.662,47.929,47.929,0,0,1,5.017-4.565c3.26-2.654,7-6.4,7-11.833a13.682,13.682,0,0,0-3.185-8.72A9.88,9.88,0,0,0,36.4,7.905a7.248,7.248,0,0,0,6.2-4.913L43.671.014Zm-29.4,6.778A7.737,7.737,0,0,1,9.308,6.193,15.176,15.176,0,0,1,5.6,4.542q.43.024.869.024h8.152l.04,0A3.766,3.766,0,0,1,18.72,6.689a11.632,11.632,0,0,0-1.41.419c-.218.084-.4.158-.558.221l-1.537.747a13.86,13.86,0,0,0-1.255.811,4.444,4.444,0,0,1-1.307-.208,5.341,5.341,0,0,1-1.271-.6m15.28,21.517a50.2,50.2,0,0,0-4.844,4.369,63.4,63.4,0,0,0-5.179-4.572c-2.794-2.213-4.514-4.469-5.241-6.884a25.787,25.787,0,0,1,10.434-2.029A25.8,25.8,0,0,1,32.261,22.5c-.936,2.984-3.341,5.253-5.6,7.09m6-9.86a28.987,28.987,0,0,0-10.834-1.96A28.983,28.983,0,0,0,11,19.733c0-.129,0-.258.009-.386a10.931,10.931,0,0,1,10.129-10.3c.236-.015.472-.022.7-.022a10.836,10.836,0,0,1,10.827,10.71m1.721-13.54a7.737,7.737,0,0,1-2.075,1.883c-.036.022-.068.039-.1.059a4.8,4.8,0,0,1-2.426.763A13.6,13.6,0,0,0,28.54,8.09h.012l-.07-.013-1.537-.747,0-.021,0,0a13.221,13.221,0,0,0-2.052-.646c1.4-1.756,2.913-2.085,5.308-2.085h7l.172,0,.723-.035a15.176,15.176,0,0,1-3.711,1.651" transform="translate(0 -0.001)" fill="currentColor"/>
  </g>
</svg>
