<svg xmlns="http://www.w3.org/2000/svg" width="37.557" height="31.749"><path d="M35.07 1.116c-.012.005-1.178.5-3.074.5h-6.757c-2.763 0-4.836 1.138-6.16 3.382l-.212.436c-.11 0-.224 0-.338.004l-.17-.4-.455-.794a5.304 5.304 0 0 0-4.577-2.64H5.561c-1.896 0-3.063-.494-3.07-.498L0 0l.925 2.562C1.8 4.97 3.543 6.354 6.255 6.787c.67.864 1.905 2.158 3.656 2.794-1.674 1.97-2.65 4.409-2.767 6.95-.177 3.866 1.748 7.422 5.723 10.569a51.75 51.75 0 0 1 4.607 4.108c.339.344.81.541 1.292.541h.02a1.796 1.796 0 0 0 1.299-.57c.865-.918 1.987-2.03 4.315-3.925 2.803-2.283 6.021-5.502 6.021-10.176 0-2.722-.99-5.413-2.74-7.5 1.734-.64 2.957-1.923 3.622-2.78 2.71-.433 4.455-1.817 5.329-4.225L37.557.01 35.07 1.116ZM9.79 6.945c-1.105-.667-1.785-1.62-1.785-1.62s-1.985-.573-3.191-1.42c.246.014.496.021.747.021h7.01l.035-.001c1.906-.13 2.711.54 3.494 1.827a10.004 10.004 0 0 0-1.693.55l-1.321.643c-.37.211-.73.444-1.08.697a3.822 3.822 0 0 1-1.123-.179 4.593 4.593 0 0 1-1.093-.518M22.93 25.45c-2.174 1.77-3.352 2.903-4.165 3.757a54.525 54.525 0 0 0-4.454-3.931c-2.403-1.903-3.882-3.844-4.507-5.92 2.409-1.112 5.65-1.745 8.973-1.745 3.32 0 6.559.632 8.967 1.742-.804 2.566-2.873 4.517-4.813 6.097m5.163-8.48c-2.643-1.09-5.918-1.686-9.317-1.686-3.4 0-6.674.596-9.317 1.686 0-.112.003-.222.008-.332.215-4.678 4.041-8.57 8.711-8.86a9.274 9.274 0 0 1 6.977 2.508 9.229 9.229 0 0 1 2.938 6.684m1.48-11.644s-.68.952-1.784 1.619c-.03.019-.059.034-.088.05-.676.419-1.374.64-2.087.657a11.7 11.7 0 0 0-1.07-.696h.01l-.06-.011-1.323-.643.002-.017-.002.001a11.37 11.37 0 0 0-1.764-.555c1.208-1.51 2.505-1.794 4.565-1.794h6.023l.148-.002.622-.03c-1.206.847-3.192 1.42-3.192 1.42" fill="currentColor" fill-rule="evenodd" data-name="Tracé 1332"/></svg>