<svg xmlns="http://www.w3.org/2000/svg" width="578" height="210" viewBox="1241 975 578 210"><g data-name="Groupe 1573"><path d="M1241 975h3v3h-3v-3zM1264 975h3v3h-3v-3zM1287 975h3v3h-3v-3zM1310 975h3v3h-3v-3zM1333 975h3v3h-3v-3zM1356 975h3v3h-3v-3zM1379 975h3v3h-3v-3zM1402 975h3v3h-3v-3zM1425 975h3v3h-3v-3zM1448 975h3v3h-3v-3zM1471 975h3v3h-3v-3zM1494 975h3v3h-3v-3zM1517 975h3v3h-3v-3zM1540 975h3v3h-3v-3zM1563 975h3v3h-3v-3zM1586 975h3v3h-3v-3zM1609 975h3v3h-3v-3zM1632 975h3v3h-3v-3zM1655 975h3v3h-3v-3zM1678 975h3v3h-3v-3zM1701 975h3v3h-3v-3zM1724 975h3v3h-3v-3zM1747 975h3v3h-3v-3zM1770 975h3v3h-3v-3zM1793 975h3v3h-3v-3zM1816 975h3v3h-3v-3zM1241 998h3v3h-3v-3zM1264 998h3v3h-3v-3zM1287 998h3v3h-3v-3zM1310 998h3v3h-3v-3zM1333 998h3v3h-3v-3zM1356 998h3v3h-3v-3zM1379 998h3v3h-3v-3zM1402 998h3v3h-3v-3zM1425 998h3v3h-3v-3zM1448 998h3v3h-3v-3zM1471 998h3v3h-3v-3zM1494 998h3v3h-3v-3zM1517 998h3v3h-3v-3zM1540 998h3v3h-3v-3zM1563 998h3v3h-3v-3zM1586 998h3v3h-3v-3zM1609 998h3v3h-3v-3zM1632 998h3v3h-3v-3zM1655 998h3v3h-3v-3zM1678 998h3v3h-3v-3zM1701 998h3v3h-3v-3zM1724 998h3v3h-3v-3zM1747 998h3v3h-3v-3zM1770 998h3v3h-3v-3zM1793 998h3v3h-3v-3zM1816 998h3v3h-3v-3zM1241 1021h3v3h-3v-3zM1264 1021h3v3h-3v-3zM1287 1021h3v3h-3v-3zM1310 1021h3v3h-3v-3zM1333 1021h3v3h-3v-3zM1356 1021h3v3h-3v-3zM1379 1021h3v3h-3v-3zM1402 1021h3v3h-3v-3zM1425 1021h3v3h-3v-3zM1448 1021h3v3h-3v-3zM1471 1021h3v3h-3v-3zM1494 1021h3v3h-3v-3zM1517 1021h3v3h-3v-3zM1540 1021h3v3h-3v-3zM1563 1021h3v3h-3v-3zM1586 1021h3v3h-3v-3zM1609 1021h3v3h-3v-3zM1632 1021h3v3h-3v-3zM1655 1021h3v3h-3v-3zM1678 1021h3v3h-3v-3zM1701 1021h3v3h-3v-3zM1724 1021h3v3h-3v-3zM1747 1021h3v3h-3v-3zM1770 1021h3v3h-3v-3zM1793 1021h3v3h-3v-3zM1816 1021h3v3h-3v-3zM1241 1044h3v3h-3v-3zM1264 1044h3v3h-3v-3zM1287 1044h3v3h-3v-3zM1310 1044h3v3h-3v-3zM1333 1044h3v3h-3v-3zM1356 1044h3v3h-3v-3zM1379 1044h3v3h-3v-3zM1402 1044h3v3h-3v-3zM1425 1044h3v3h-3v-3zM1448 1044h3v3h-3v-3zM1471 1044h3v3h-3v-3zM1494 1044h3v3h-3v-3zM1517 1044h3v3h-3v-3zM1540 1044h3v3h-3v-3zM1563 1044h3v3h-3v-3zM1586 1044h3v3h-3v-3zM1609 1044h3v3h-3v-3zM1632 1044h3v3h-3v-3zM1655 1044h3v3h-3v-3zM1678 1044h3v3h-3v-3zM1701 1044h3v3h-3v-3zM1724 1044h3v3h-3v-3zM1747 1044h3v3h-3v-3zM1770 1044h3v3h-3v-3zM1793 1044h3v3h-3v-3zM1816 1044h3v3h-3v-3zM1241 1067h3v3h-3v-3zM1264 1067h3v3h-3v-3zM1287 1067h3v3h-3v-3zM1310 1067h3v3h-3v-3zM1333 1067h3v3h-3v-3zM1356 1067h3v3h-3v-3zM1379 1067h3v3h-3v-3zM1402 1067h3v3h-3v-3zM1425 1067h3v3h-3v-3zM1448 1067h3v3h-3v-3zM1471 1067h3v3h-3v-3zM1494 1067h3v3h-3v-3zM1517 1067h3v3h-3v-3zM1540 1067h3v3h-3v-3zM1563 1067h3v3h-3v-3zM1586 1067h3v3h-3v-3zM1609 1067h3v3h-3v-3zM1632 1067h3v3h-3v-3zM1655 1067h3v3h-3v-3zM1678 1067h3v3h-3v-3zM1701 1067h3v3h-3v-3zM1724 1067h3v3h-3v-3zM1747 1067h3v3h-3v-3zM1770 1067h3v3h-3v-3zM1793 1067h3v3h-3v-3zM1816 1067h3v3h-3v-3zM1241 1090h3v3h-3v-3zM1264 1090h3v3h-3v-3zM1287 1090h3v3h-3v-3zM1310 1090h3v3h-3v-3zM1333 1090h3v3h-3v-3zM1356 1090h3v3h-3v-3zM1379 1090h3v3h-3v-3zM1402 1090h3v3h-3v-3zM1425 1090h3v3h-3v-3zM1448 1090h3v3h-3v-3zM1471 1090h3v3h-3v-3zM1494 1090h3v3h-3v-3zM1517 1090h3v3h-3v-3zM1540 1090h3v3h-3v-3zM1563 1090h3v3h-3v-3zM1586 1090h3v3h-3v-3zM1609 1090h3v3h-3v-3zM1632 1090h3v3h-3v-3zM1655 1090h3v3h-3v-3zM1678 1090h3v3h-3v-3zM1701 1090h3v3h-3v-3zM1724 1090h3v3h-3v-3zM1747 1090h3v3h-3v-3zM1770 1090h3v3h-3v-3zM1793 1090h3v3h-3v-3zM1816 1090h3v3h-3v-3zM1241 1113h3v3h-3v-3zM1264 1113h3v3h-3v-3zM1287 1113h3v3h-3v-3zM1310 1113h3v3h-3v-3zM1333 1113h3v3h-3v-3zM1356 1113h3v3h-3v-3zM1379 1113h3v3h-3v-3zM1402 1113h3v3h-3v-3zM1425 1113h3v3h-3v-3zM1448 1113h3v3h-3v-3zM1471 1113h3v3h-3v-3zM1494 1113h3v3h-3v-3zM1517 1113h3v3h-3v-3zM1540 1113h3v3h-3v-3zM1563 1113h3v3h-3v-3zM1586 1113h3v3h-3v-3zM1609 1113h3v3h-3v-3zM1632 1113h3v3h-3v-3zM1655 1113h3v3h-3v-3zM1678 1113h3v3h-3v-3zM1701 1113h3v3h-3v-3zM1724 1113h3v3h-3v-3zM1747 1113h3v3h-3v-3zM1770 1113h3v3h-3v-3zM1793 1113h3v3h-3v-3zM1816 1113h3v3h-3v-3zM1241 1136h3v3h-3v-3zM1264 1136h3v3h-3v-3zM1287 1136h3v3h-3v-3zM1310 1136h3v3h-3v-3zM1333 1136h3v3h-3v-3zM1356 1136h3v3h-3v-3zM1379 1136h3v3h-3v-3zM1402 1136h3v3h-3v-3zM1425 1136h3v3h-3v-3zM1448 1136h3v3h-3v-3zM1471 1136h3v3h-3v-3zM1494 1136h3v3h-3v-3zM1517 1136h3v3h-3v-3zM1540 1136h3v3h-3v-3zM1563 1136h3v3h-3v-3zM1586 1136h3v3h-3v-3zM1609 1136h3v3h-3v-3zM1632 1136h3v3h-3v-3zM1655 1136h3v3h-3v-3zM1678 1136h3v3h-3v-3zM1701 1136h3v3h-3v-3zM1724 1136h3v3h-3v-3zM1747 1136h3v3h-3v-3zM1770 1136h3v3h-3v-3zM1793 1136h3v3h-3v-3zM1816 1136h3v3h-3v-3zM1241 1159h3v3h-3v-3zM1264 1159h3v3h-3v-3zM1287 1159h3v3h-3v-3zM1310 1159h3v3h-3v-3zM1333 1159h3v3h-3v-3zM1356 1159h3v3h-3v-3zM1379 1159h3v3h-3v-3zM1402 1159h3v3h-3v-3zM1425 1159h3v3h-3v-3zM1448 1159h3v3h-3v-3zM1471 1159h3v3h-3v-3zM1494 1159h3v3h-3v-3zM1517 1159h3v3h-3v-3zM1540 1159h3v3h-3v-3zM1563 1159h3v3h-3v-3zM1586 1159h3v3h-3v-3zM1609 1159h3v3h-3v-3zM1632 1159h3v3h-3v-3zM1655 1159h3v3h-3v-3zM1678 1159h3v3h-3v-3zM1701 1159h3v3h-3v-3zM1724 1159h3v3h-3v-3zM1747 1159h3v3h-3v-3zM1770 1159h3v3h-3v-3zM1793 1159h3v3h-3v-3zM1816 1159h3v3h-3v-3zM1241 1182h3v3h-3v-3zM1264 1182h3v3h-3v-3zM1287 1182h3v3h-3v-3zM1310 1182h3v3h-3v-3zM1333 1182h3v3h-3v-3zM1356 1182h3v3h-3v-3zM1379 1182h3v3h-3v-3zM1402 1182h3v3h-3v-3zM1425 1182h3v3h-3v-3zM1448 1182h3v3h-3v-3zM1471 1182h3v3h-3v-3zM1494 1182h3v3h-3v-3zM1517 1182h3v3h-3v-3zM1540 1182h3v3h-3v-3zM1563 1182h3v3h-3v-3zM1586 1182h3v3h-3v-3zM1609 1182h3v3h-3v-3zM1632 1182h3v3h-3v-3zM1655 1182h3v3h-3v-3zM1678 1182h3v3h-3v-3zM1701 1182h3v3h-3v-3zM1724 1182h3v3h-3v-3zM1747 1182h3v3h-3v-3zM1770 1182h3v3h-3v-3zM1793 1182h3v3h-3v-3zM1816 1182h3v3h-3v-3z" fill="#a5e7df" fill-rule="evenodd" data-name="Rectangle 2"/></g></svg>