<svg xmlns="http://www.w3.org/2000/svg" width="29.158" height="39.619"><path d="M29.153 6.808a2.075 2.075 0 0 0-.545-1.54 2.075 2.075 0 0 0-1.479-.681 2.112 2.112 0 0 0-1.528.58l-6.868 6.566c-.131.002-.258.005-.39.015l5.467-8.506c.31-.484.41-1.053.279-1.61a2.086 2.086 0 0 0-.953-1.324 2.085 2.085 0 0 0-1.616-.24 2.073 2.073 0 0 0-1.3.983l-6.78 11.757A7.487 7.487 0 0 0 9.57 11.73c-3.926 0-7.16 3.023-7.499 6.865A2.335 2.335 0 0 0 0 20.909c0 1.124.8 2.066 1.859 2.288l2.53 12.728a4.6 4.6 0 0 0 4.503 3.694h10.592a4.607 4.607 0 0 0 4.507-3.695l2.53-12.729a2.342 2.342 0 0 0 1.854-2.286c0-1.2-.91-2.179-2.073-2.313a7.522 7.522 0 0 0-3.314-5.594l5.448-4.73c.431-.373.686-.893.717-1.464Zm-7.98-5.205a.991.991 0 0 1 1.386-.354.973.973 0 0 1 .457.63.981.981 0 0 1-.136.763l-5.998 9.337a7.498 7.498 0 0 0-2.29 1.04l6.58-11.416Zm-11.6 11.23c3.317 0 6.042 2.51 6.396 5.734h-1.085a5.357 5.357 0 0 0-5.311-4.659 5.362 5.362 0 0 0-5.31 4.659H3.176c.354-3.225 3.085-5.735 6.397-5.735Zm7.505 5.735a5.436 5.436 0 0 0-.046-.38 2.072 2.072 0 0 1 1.77-1.002c.902 0 1.66.577 1.95 1.384l-3.674-.002Zm4.82 0a3.18 3.18 0 0 0-3.095-2.48c-.798 0-1.529.291-2.086.781-.117-.359-.26-.7-.426-1.028a4.165 4.165 0 0 1 2.514-.829 4.248 4.248 0 0 1 4.194 3.556h-1.101Zm-9.23 0a3.175 3.175 0 0 0-3.096-2.48 3.178 3.178 0 0 0-3.095 2.48H5.378a4.253 4.253 0 0 1 8.389 0h-1.1Zm-1.142 0H7.622a2.078 2.078 0 0 1 1.949-1.384 2.08 2.08 0 0 1 1.955 1.384m11.387 17.14a3.505 3.505 0 0 1-3.43 2.809H8.892a3.5 3.5 0 0 1-3.423-2.81L2.992 23.246h22.392l-2.471 12.461Zm4.36-14.8a1.24 1.24 0 0 1-1.238 1.237H2.341a1.24 1.24 0 0 1 0-2.478h23.694a1.242 1.242 0 0 1 1.238 1.24M25.2 18.568h-1.086a5.357 5.357 0 0 0-5.311-4.658 5.286 5.286 0 0 0-3.089.99 6.823 6.823 0 0 0-.692-.835 6.412 6.412 0 0 1 3.783-1.231c3.315-.002 6.04 2.509 6.395 5.734Zm2.51-11.127-5.747 4.994a7.532 7.532 0 0 0-1.769-.57L26.36 5.96a1.01 1.01 0 0 1 .693-.279h.038a.998.998 0 0 1 .705.329.993.993 0 0 1-.086 1.43Zm-13.523 17.5a5.476 5.476 0 0 0-5.47 5.47 5.476 5.476 0 0 0 5.47 5.47 5.476 5.476 0 0 0 5.47-5.47 5.473 5.473 0 0 0-5.47-5.47m0 9.84c-2.409 0-4.37-1.96-4.37-4.37 0-2.409 1.961-4.37 4.37-4.37 2.41 0 4.37 1.961 4.37 4.37a4.372 4.372 0 0 1-4.37 4.37" fill="#fff" fill-rule="evenodd" data-name="Tracé 1593"/></svg>