<svg xmlns="http://www.w3.org/2000/svg" xmlns:xlink="http://www.w3.org/1999/xlink" viewBox="0 0 29.158 39.619">
  <defs>
    <clipPath id="clip-path">
      <rect id="Rectangle_1830" data-name="Rectangle 1830" width="29.158" height="39.619" fill="currentColor"/>
    </clipPath>
  </defs>
  <g id="Groupe_1785" data-name="Groupe 1785" transform="translate(0 0)">
    <g id="Groupe_1784" data-name="Groupe 1784" transform="translate(0 0)" clip-path="url(#clip-path)">
      <path id="Tracé_1593" data-name="Tracé 1593" d="M29.153,6.808a2.1,2.1,0,0,0-2.024-2.222,2.112,2.112,0,0,0-1.529.581l-6.868,6.565c-.131,0-.258.005-.389.015L23.81,3.242A2.108,2.108,0,0,0,23.136.308a2.106,2.106,0,0,0-2.916.743L13.44,12.808A7.519,7.519,0,0,0,2.072,18.6a2.332,2.332,0,0,0-.213,4.6l2.53,12.728a4.6,4.6,0,0,0,4.5,3.694H19.484a4.607,4.607,0,0,0,4.507-3.7L26.52,23.2a2.332,2.332,0,0,0-.218-4.6A7.522,7.522,0,0,0,22.988,13l5.448-4.73a2.063,2.063,0,0,0,.717-1.463Zm-7.98-5.2a1,1,0,0,1,1.386-.354.992.992,0,0,1,.321,1.393l-6,9.337a7.5,7.5,0,0,0-2.29,1.04ZM9.572,12.832a6.439,6.439,0,0,1,6.4,5.735H14.884a5.356,5.356,0,0,0-10.621,0H3.176a6.443,6.443,0,0,1,6.4-5.735Zm7.506,5.736c-.012-.128-.026-.255-.046-.38a2.064,2.064,0,0,1,3.719.382Zm4.82,0a3.18,3.18,0,0,0-3.1-2.48,3.144,3.144,0,0,0-2.086.78,7.164,7.164,0,0,0-.427-1.028,4.165,4.165,0,0,1,2.514-.829A4.248,4.248,0,0,1,23,18.568Zm-9.231,0a3.171,3.171,0,0,0-6.19,0h-1.1a4.251,4.251,0,0,1,8.388,0Zm-1.141,0h-3.9a2.068,2.068,0,0,1,3.9,0M22.913,35.707a3.5,3.5,0,0,1-3.429,2.809H8.891a3.5,3.5,0,0,1-3.423-2.809L2.992,23.246H25.384Zm4.361-14.8a1.24,1.24,0,0,1-1.238,1.238H2.341a1.239,1.239,0,0,1,0-2.478H26.035a1.242,1.242,0,0,1,1.238,1.24M25.2,18.568H24.114A5.357,5.357,0,0,0,18.8,13.91a5.286,5.286,0,0,0-3.088.99,6.823,6.823,0,0,0-.693-.836,6.431,6.431,0,0,1,10.178,4.5ZM27.71,7.441l-5.747,4.994a7.532,7.532,0,0,0-1.769-.571l6.166-5.9a1.009,1.009,0,0,1,.693-.279h.038a1,1,0,0,1,.7.328,1.018,1.018,0,0,1,.26.731A.993.993,0,0,1,27.71,7.441Zm-13.523,17.5a5.47,5.47,0,1,0,5.47,5.47,5.476,5.476,0,0,0-5.47-5.47m0,9.839a4.369,4.369,0,1,1,4.369-4.369,4.375,4.375,0,0,1-4.369,4.369" transform="translate(0 0)" fill="currentColor"/>
    </g>
  </g>
</svg>
