<svg xmlns="http://www.w3.org/2000/svg" width="37.299" height="40.716" viewBox="-0.05 -0.05 37.299 40.716"><g data-name="Tracé 1612"><path d="M.643 4.102a.45.45 0 1 1 .9-.02c.05 2.14.086 4.107.105 5.897.018 1.777.02 3.375.005 4.791v.039c-.053 2.2-.286 3.644-.48 4.851-.355 2.214-.58 3.606.78 7.619.518 1.275 1.253 2.522 2.205 3.74.96 1.224 2.14 2.422 3.54 3.586l.008.007.004.003.005.004.004.004a.75.75 0 0 0 .692.162.617.617 0 0 0 .244-.129.46.46 0 0 0 .127-.189c.046-.14.012-.325-.143-.537-1.594-1.505-2.627-3.244-3.1-5.211-.47-1.955-.383-4.13.264-6.521l.004-.02c.125-.539.33-.938.588-1.19.244-.239.528-.352.843-.338.284.012.574.133.855.362.436.357.888 1.016 1.295 1.988.11.056.21.097.304.122.146.039.267.039.362-.002l.014-.007c.096-.045.186-.138.267-.278a2.12 2.12 0 0 0 .184-.434 40.948 40.948 0 0 0-1.45-3.58 42.902 42.902 0 0 0-1.243-2.482 45.704 45.704 0 0 0-1.403-2.415l-.002-.002-.005-.009a.35.35 0 0 1-.04-.076l-.002-.001a.446.446 0 0 1-.035-.175v-9a.453.453 0 0 1 .904 0v1.81A22.124 22.124 0 0 1 9.32 4.349C12.144 1.833 15.27.432 18.245.085c2.996-.347 5.84.37 8.081 2.087l.015.01c.512.395.99.84 1.43 1.333a.407.407 0 0 1 .06.086c1.221 1.89 1.866 3.513 1.934 4.868.037.738-.096 1.4-.396 1.98-.3.582-.767 1.076-1.394 1.483-.91.59-2.173.996-3.788 1.218a9.584 9.584 0 0 1 2.032 1.366 8.48 8.48 0 0 1 1.906 2.437 46.134 46.134 0 0 1 1.922-3.419V4.662a.453.453 0 0 1 .905 0v8.999a.433.433 0 0 1-.036.175l-.001.002a.46.46 0 0 1-.041.076l-.006.008-.001.004a44.202 44.202 0 0 0-2.337 4.246c-.009.019-.018.04-.028.058l-.002.005a42.377 42.377 0 0 0-1.725 4.166c.055.175.116.32.184.434.083.14.171.234.267.278l.014.007c.095.04.216.04.362.002.094-.025.196-.065.304-.122.406-.972.858-1.63 1.295-1.988.281-.23.572-.35.855-.362.313-.014.599.1.843.337.257.253.462.653.588 1.191l.003.02c.647 2.39.735 4.567.266 6.52-.474 1.97-1.507 3.707-3.1 5.212-.156.212-.19.398-.144.538.023.07.07.135.127.187.064.06.15.106.244.132.213.06.474.023.693-.163l.003-.003.005-.003.004-.004.009-.007c1.4-1.164 2.58-2.362 3.538-3.587.953-1.217 1.688-2.464 2.205-3.74 1.36-4.012 1.136-5.406.782-7.618-.195-1.206-.428-2.651-.482-4.851v-.04a244.11 244.11 0 0 1 .006-4.79c.018-1.79.053-3.757.104-5.898a.45.45 0 1 1 .901.021 429.908 429.908 0 0 0-.104 5.884c-.018 1.77-.02 3.363-.005 4.773v.032c.051 2.136.279 3.55.47 4.73.375 2.35.614 3.828-.817 8.052l-.003.01v.001l-.004.01v.002l-.003.01-.004.01-.005.01c-.548 1.352-1.325 2.668-2.327 3.95-.994 1.273-2.217 2.513-3.664 3.718l-.01.009-.008.007a1.638 1.638 0 0 1-1.53.35 1.537 1.537 0 0 1-.597-.327 1.33 1.33 0 0 1-.386-.578c-.135-.404-.075-.887.29-1.373v-.001l.006-.008.007-.008.005-.008.003-.001.004-.007.045-.044.007-.006c1.475-1.388 2.43-2.984 2.864-4.782.434-1.81.347-3.837-.26-6.081l-.014-.046c-.085-.366-.205-.618-.342-.752-.056-.055-.114-.084-.17-.08-.085.004-.195.058-.322.162-.338.276-.705.833-1.055 1.686.088 2.341-.31 4.412-1.051 6.168-.802 1.9-2.002 3.436-3.415 4.552-.118 4.253 1.495 4.442 5.36 4.892 1.312.152 2.864.336 4.675.69a.452.452 0 0 1-.173.888c-1.779-.35-3.31-.53-4.604-.68-4.251-.497-6.134-.718-6.166-5.147-1.486.935-3.148 1.452-4.81 1.502a8.451 8.451 0 0 1-4.573-1.17c.21 3.8-1.339 4.037-7.074 4.905-1.244.189-2.7.41-4.353.701a.453.453 0 0 1-.155-.89c1.704-.3 3.142-.518 4.372-.705 5.381-.815 6.603-1.002 6.252-4.668-1.295-1.022-2.406-2.485-3.192-4.427-.721-1.78-1.17-3.972-1.233-6.599-.352-.86-.721-1.42-1.06-1.698-.127-.104-.237-.158-.322-.162-.054-.002-.115.025-.171.08-.136.134-.256.386-.341.752l-.014.046c-.608 2.244-.694 4.272-.26 6.08.433 1.8 1.387 3.396 2.864 4.783l.007.006.044.044.006.007v.001l.006.008.008.008.005.008.001.001c.366.486.425.97.29 1.373-.074.226-.21.424-.385.58-.17.148-.376.26-.597.325a1.64 1.64 0 0 1-1.53-.35l-.009-.007-.009-.01c-1.447-1.204-2.668-2.444-3.664-3.716-1.003-1.283-1.779-2.599-2.327-3.95l-.005-.011-.003-.01v-.001l-.004-.009v-.001l-.003-.01v-.003l-.004-.009c-1.431-4.224-1.194-5.7-.816-8.052.19-1.182.417-2.594.47-4.73v-.032C.772 13.35.77 11.758.753 9.988A422.798 422.798 0 0 0 .65 4.104l-.006-.002ZM7.245 7.9v5.638c.484.784.943 1.577 1.376 2.378.322.595.628 1.194.919 1.797 1.187-1.7 2.763-2.992 4.73-3.873 2.19-.984 4.86-1.456 8.01-1.415h.023c2.358-.119 4.086-.534 5.181-1.244.495-.32.857-.702 1.084-1.14.227-.44.326-.948.298-1.524-.056-1.154-.618-2.573-1.684-4.256-2.922-.114-5.304.192-7.14.913-1.833.72-3.125 1.862-3.87 3.424a.454.454 0 0 1-.603.214.453.453 0 0 1-.213-.603c.848-1.775 2.302-3.067 4.356-3.874 1.756-.69 3.96-1.021 6.605-.995a9.35 9.35 0 0 0-.525-.434l-.01-.01C23.73 1.323 21.114.667 18.347.989c-2.797.325-5.747 1.653-8.429 4.04a21.734 21.734 0 0 0-2.677 2.873l.004-.002Zm14.99 5.424c-3.001-.034-5.535.411-7.598 1.337-1.979.889-3.528 2.224-4.648 4.007.251.553.49 1.108.714 1.668.249.618.485 1.245.705 1.878l.003.01c.013.03.021.062.027.096v.001l.001.01v.003a.423.423 0 0 1-.003.143l-.007.033c-.083.31-.189.573-.317.789-.18.305-.406.519-.674.641l-.027.012a1.403 1.403 0 0 1-.906.057c.11 2.233.52 4.115 1.147 5.664.752 1.858 1.82 3.234 3.056 4.166a7.542 7.542 0 0 0 4.804 1.524c1.75-.051 3.513-.686 5.028-1.832 1.366-1.035 2.531-2.493 3.3-4.314.63-1.498.996-3.248.99-5.22-.344.093-.66.077-.945-.045l-.026-.012c-.269-.122-.496-.338-.675-.642a3.202 3.202 0 0 1-.317-.788.455.455 0 0 1 .022-.295l.006-.01a41.98 41.98 0 0 1 1.725-4.208 7.691 7.691 0 0 0-1.992-2.803c-.905-.802-2.035-1.425-3.387-1.872l-.005.002Z" fill="#fff" fill-rule="evenodd"/><path d="M.643 4.102a.45.45 0 1 1 .9-.02c.05 2.14.086 4.107.105 5.897.018 1.777.02 3.375.005 4.791v.039c-.053 2.2-.286 3.644-.48 4.851-.355 2.214-.58 3.606.78 7.619.518 1.275 1.253 2.522 2.205 3.74.96 1.224 2.14 2.422 3.54 3.586l.008.007.004.003.005.004.004.004a.75.75 0 0 0 .692.162.617.617 0 0 0 .244-.129.46.46 0 0 0 .127-.189c.046-.14.012-.325-.143-.537-1.594-1.505-2.627-3.244-3.1-5.211-.47-1.955-.383-4.13.264-6.521l.004-.02c.125-.539.33-.938.588-1.19.244-.239.528-.352.843-.338.284.012.574.133.855.362.436.357.888 1.016 1.295 1.988.11.056.21.097.304.122.146.039.267.039.362-.002l.014-.007c.096-.045.186-.138.267-.278a2.12 2.12 0 0 0 .184-.434 40.948 40.948 0 0 0-1.45-3.58 42.902 42.902 0 0 0-1.243-2.482 45.704 45.704 0 0 0-1.403-2.415l-.002-.002-.005-.009a.35.35 0 0 1-.04-.076l-.002-.001a.446.446 0 0 1-.035-.175v-9a.453.453 0 0 1 .904 0v1.81A22.124 22.124 0 0 1 9.32 4.349C12.144 1.833 15.27.432 18.245.085c2.996-.347 5.84.37 8.081 2.087l.015.01c.512.395.99.84 1.43 1.333a.407.407 0 0 1 .06.086c1.221 1.89 1.866 3.513 1.934 4.868.037.738-.096 1.4-.396 1.98-.3.582-.767 1.076-1.394 1.483-.91.59-2.173.996-3.788 1.218a9.584 9.584 0 0 1 2.032 1.366 8.48 8.48 0 0 1 1.906 2.437 46.134 46.134 0 0 1 1.922-3.419V4.662a.453.453 0 0 1 .905 0v8.999a.433.433 0 0 1-.036.175l-.001.002a.46.46 0 0 1-.041.076l-.006.008-.001.004a44.202 44.202 0 0 0-2.337 4.246c-.009.019-.018.04-.028.058l-.002.005a42.377 42.377 0 0 0-1.725 4.166c.055.175.116.32.184.434.083.14.171.234.267.278l.014.007c.095.04.216.04.362.002.094-.025.196-.065.304-.122.406-.972.858-1.63 1.295-1.988.281-.23.572-.35.855-.362.313-.014.599.1.843.337.257.253.462.653.588 1.191l.003.02c.647 2.39.735 4.567.266 6.52-.474 1.97-1.507 3.707-3.1 5.212-.156.212-.19.398-.144.538.023.07.07.135.127.187.064.06.15.106.244.132.213.06.474.023.693-.163l.003-.003.005-.003.004-.004.009-.007c1.4-1.164 2.58-2.362 3.538-3.587.953-1.217 1.688-2.464 2.205-3.74 1.36-4.012 1.136-5.406.782-7.618-.195-1.206-.428-2.651-.482-4.851v-.04a244.11 244.11 0 0 1 .006-4.79c.018-1.79.053-3.757.104-5.898a.45.45 0 1 1 .901.021 429.908 429.908 0 0 0-.104 5.884c-.018 1.77-.02 3.363-.005 4.773v.032c.051 2.136.279 3.55.47 4.73.375 2.35.614 3.828-.817 8.052l-.003.01v.001l-.004.01v.002l-.003.01h0l-.004.01-.005.01c-.548 1.352-1.325 2.668-2.327 3.95-.994 1.273-2.217 2.513-3.664 3.718l-.01.009-.008.007a1.638 1.638 0 0 1-1.53.35 1.537 1.537 0 0 1-.597-.327 1.33 1.33 0 0 1-.386-.578c-.135-.404-.075-.887.29-1.373v-.001l.006-.008.007-.008.005-.008.003-.001.004-.007.045-.044.007-.006c1.475-1.388 2.43-2.984 2.864-4.782.434-1.81.347-3.837-.26-6.081l-.014-.046c-.085-.366-.205-.618-.342-.752-.056-.055-.114-.084-.17-.08-.085.004-.195.058-.322.162-.338.276-.705.833-1.055 1.686.088 2.341-.31 4.412-1.051 6.168-.802 1.9-2.002 3.436-3.415 4.552-.118 4.253 1.495 4.442 5.36 4.892 1.312.152 2.864.336 4.675.69a.452.452 0 0 1-.173.888c-1.779-.35-3.31-.53-4.604-.68-4.251-.497-6.134-.718-6.166-5.147-1.486.935-3.148 1.452-4.81 1.502a8.451 8.451 0 0 1-4.573-1.17c.21 3.8-1.339 4.037-7.074 4.905-1.244.189-2.7.41-4.353.701a.453.453 0 0 1-.155-.89c1.704-.3 3.142-.518 4.372-.705 5.381-.815 6.603-1.002 6.252-4.668-1.295-1.022-2.406-2.485-3.192-4.427-.721-1.78-1.17-3.972-1.233-6.599-.352-.86-.721-1.42-1.06-1.698-.127-.104-.237-.158-.322-.162-.054-.002-.115.025-.171.08-.136.134-.256.386-.341.752l-.014.046c-.608 2.244-.694 4.272-.26 6.08.433 1.8 1.387 3.396 2.864 4.783l.007.006.044.044.006.007v.001l.006.008.008.008.005.008.001.001c.366.486.425.97.29 1.373-.074.226-.21.424-.385.58-.17.148-.376.26-.597.325a1.64 1.64 0 0 1-1.53-.35l-.009-.007-.009-.01c-1.447-1.204-2.668-2.444-3.664-3.716-1.003-1.283-1.779-2.599-2.327-3.95l-.005-.011-.003-.01v-.001l-.004-.009v-.001l-.003-.01v-.003l-.004-.009c-1.431-4.224-1.194-5.7-.816-8.052.19-1.182.417-2.594.47-4.73v-.032C.772 13.35.77 11.758.753 9.988A422.798 422.798 0 0 0 .65 4.104l-.006-.002ZM7.245 7.9v5.638c.484.784.943 1.577 1.376 2.378.322.595.628 1.194.919 1.797 1.187-1.7 2.763-2.992 4.73-3.873 2.19-.984 4.86-1.456 8.01-1.415h.023c2.358-.119 4.086-.534 5.181-1.244.495-.32.857-.702 1.084-1.14.227-.44.326-.948.298-1.524-.056-1.154-.618-2.573-1.684-4.256-2.922-.114-5.304.192-7.14.913-1.833.72-3.125 1.862-3.87 3.424a.454.454 0 0 1-.603.214.453.453 0 0 1-.213-.603c.848-1.775 2.302-3.067 4.356-3.874 1.756-.69 3.96-1.021 6.605-.995a9.35 9.35 0 0 0-.525-.434l-.01-.01C23.73 1.323 21.114.667 18.347.989c-2.797.325-5.747 1.653-8.429 4.04a21.734 21.734 0 0 0-2.677 2.873l.004-.002Zm14.99 5.424c-3.001-.034-5.535.411-7.598 1.337-1.979.889-3.528 2.224-4.648 4.007.251.553.49 1.108.714 1.668.249.618.485 1.245.705 1.878l.003.01c.013.03.021.062.027.096v.001l.001.01v.003a.423.423 0 0 1-.003.143l-.007.033c-.083.31-.189.573-.317.789-.18.305-.406.519-.674.641l-.027.012a1.403 1.403 0 0 1-.906.057c.11 2.233.52 4.115 1.147 5.664.752 1.858 1.82 3.234 3.056 4.166a7.542 7.542 0 0 0 4.804 1.524c1.75-.051 3.513-.686 5.028-1.832 1.366-1.035 2.531-2.493 3.3-4.314.63-1.498.996-3.248.99-5.22-.344.093-.66.077-.945-.045l-.026-.012c-.269-.122-.496-.338-.675-.642a3.202 3.202 0 0 1-.317-.788.455.455 0 0 1 .022-.295l.006-.01a41.98 41.98 0 0 1 1.725-4.208 7.691 7.691 0 0 0-1.992-2.803c-.905-.802-2.035-1.425-3.387-1.872l-.005.002Z" stroke-linejoin="round" stroke-linecap="round" stroke-width=".1" stroke="#fff" fill="transparent"/></g></svg>