<svg id="Groupe_1828" data-name="Groupe 1828" xmlns="http://www.w3.org/2000/svg" xmlns:xlink="http://www.w3.org/1999/xlink" viewBox="0 0 37.299 40.716">
  <defs>
    <clipPath id="clip-path">
      <rect id="Rectangle_1839" data-name="Rectangle 1839" width="37.299" height="40.716" fill="none" stroke="currentColor" stroke-width="0.1"/>
    </clipPath>
  </defs>
  <g id="Groupe_1827" data-name="Groupe 1827" clip-path="url(#clip-path)">
    <path id="Tracé_1612" data-name="Tracé 1612" d="M.643,4.1a.451.451,0,1,1,.9-.021q.075,3.212.1,5.9.026,2.665,0,4.791v.039a32.5,32.5,0,0,1-.48,4.852c-.355,2.213-.579,3.606.781,7.618a15.627,15.627,0,0,0,2.2,3.74A23.857,23.857,0,0,0,7.7,34.605l.009.007,0,0,.005,0,0,0a.751.751,0,0,0,.692.162.617.617,0,0,0,.244-.129.461.461,0,0,0,.127-.189.6.6,0,0,0-.143-.537,10.438,10.438,0,0,1-3.1-5.212A13.1,13.1,0,0,1,5.8,22.2l0-.019A2.406,2.406,0,0,1,6.4,20.987a1.1,1.1,0,0,1,.843-.337,1.459,1.459,0,0,1,.855.362A5.148,5.148,0,0,1,9.388,23a1.522,1.522,0,0,0,.3.122.557.557,0,0,0,.362,0l.014-.007a.656.656,0,0,0,.267-.277,2.12,2.12,0,0,0,.184-.435q-.3-.866-.654-1.733c-.249-.616-.514-1.233-.8-1.846q-.575-1.251-1.242-2.482-.655-1.212-1.4-2.415v0l0-.009a.35.35,0,0,1-.041-.076l0,0a.446.446,0,0,1-.035-.175v-9a.452.452,0,1,1,.9,0V6.471A22.124,22.124,0,0,1,9.319,4.349,16.457,16.457,0,0,1,18.246.086a11.019,11.019,0,0,1,8.081,2.087l.015.01a10.482,10.482,0,0,1,1.431,1.332.407.407,0,0,1,.06.086,10.438,10.438,0,0,1,1.933,4.867,3.823,3.823,0,0,1-.4,1.981,3.919,3.919,0,0,1-1.394,1.482,9.334,9.334,0,0,1-3.788,1.219,9.584,9.584,0,0,1,2.032,1.366,8.479,8.479,0,0,1,1.906,2.436c.232-.458.468-.908.714-1.352q.572-1.039,1.208-2.067V4.662a.452.452,0,0,1,.9,0v9a.433.433,0,0,1-.036.175v0a.46.46,0,0,1-.041.076l-.005.009v0q-.649,1.047-1.237,2.111c-.393.716-.761,1.429-1.1,2.134-.009.019-.018.041-.028.058l0,0q-.5,1.055-.945,2.124-.419,1.02-.779,2.042a2.059,2.059,0,0,0,.184.435.66.66,0,0,0,.267.278l.014.007a.556.556,0,0,0,.362,0,1.477,1.477,0,0,0,.3-.122A5.137,5.137,0,0,1,29.2,21.012a1.466,1.466,0,0,1,.855-.362,1.112,1.112,0,0,1,.843.337,2.417,2.417,0,0,1,.588,1.191l0,.019a13.1,13.1,0,0,1,.265,6.521,10.437,10.437,0,0,1-3.1,5.212.6.6,0,0,0-.143.537.433.433,0,0,0,.128.187.6.6,0,0,0,.243.133.753.753,0,0,0,.693-.163l0,0,.005,0,0,0,.009-.007a23.788,23.788,0,0,0,3.539-3.587,15.6,15.6,0,0,0,2.2-3.74c1.36-4.012,1.136-5.406.782-7.618a32.527,32.527,0,0,1-.481-4.852v-.039q-.021-2.125.005-4.791.027-2.684.1-5.9a.451.451,0,1,1,.9.021q-.077,3.222-.1,5.883t0,4.774v.032a31.706,31.706,0,0,0,.469,4.729c.376,2.35.615,3.829-.816,8.053l0,.009v0l0,.01v0l0,.009h0l0,.009,0,.01a16.5,16.5,0,0,1-2.327,3.951A24.651,24.651,0,0,1,30.186,35.3l-.009.009-.009.007a1.638,1.638,0,0,1-1.53.35,1.537,1.537,0,0,1-.6-.327,1.329,1.329,0,0,1-.387-.578,1.47,1.47,0,0,1,.29-1.373v0l.005-.007.007-.009.005-.007,0,0,0-.007.044-.044.008-.005a9.579,9.579,0,0,0,2.863-4.782,12.232,12.232,0,0,0-.26-6.081l-.014-.046a1.573,1.573,0,0,0-.341-.753.232.232,0,0,0-.171-.08.608.608,0,0,0-.322.162,4.351,4.351,0,0,0-1.055,1.686,14.386,14.386,0,0,1-1.052,6.168,11.408,11.408,0,0,1-3.415,4.553c-.118,4.252,1.495,4.441,5.36,4.892,1.312.152,2.864.336,4.675.691a.452.452,0,0,1-.173.887c-1.779-.35-3.311-.53-4.6-.68-4.251-.5-6.134-.717-6.166-5.146a9.6,9.6,0,0,1-4.809,1.5,8.451,8.451,0,0,1-4.574-1.17c.21,3.8-1.339,4.037-7.074,4.9-1.244.189-2.7.41-4.353.7a.452.452,0,1,1-.155-.891c1.7-.3,3.143-.518,4.373-.705,5.381-.815,6.6-1,6.252-4.667a10.587,10.587,0,0,1-3.193-4.427,18.765,18.765,0,0,1-1.233-6.6,4.387,4.387,0,0,0-1.06-1.7A.609.609,0,0,0,7.2,21.56a.243.243,0,0,0-.171.08,1.582,1.582,0,0,0-.341.753l-.014.046a12.222,12.222,0,0,0-.26,6.081A9.553,9.553,0,0,0,9.278,33.3l.007.005.044.044.005.007v0l.005.007.007.009.005.007v0a1.466,1.466,0,0,1,.29,1.373,1.332,1.332,0,0,1-.385.579,1.579,1.579,0,0,1-.6.325,1.639,1.639,0,0,1-1.53-.35L7.125,35.3,7.116,35.3a24.7,24.7,0,0,1-3.664-3.717,16.442,16.442,0,0,1-2.327-3.951l0-.01,0-.009v0l0-.009v0l0-.01v0l0-.009c-1.431-4.224-1.194-5.7-.816-8.053a32.155,32.155,0,0,0,.47-4.729v-.032Q.78,12.644.754,9.988T.649,4.1Zm6.6,3.8v5.638q.726,1.176,1.376,2.378.482.893.919,1.8a11.268,11.268,0,0,1,4.729-3.873,18.889,18.889,0,0,1,8.012-1.415H22.3a10.794,10.794,0,0,0,5.182-1.244,3.033,3.033,0,0,0,1.083-1.139,2.953,2.953,0,0,0,.3-1.525A9.353,9.353,0,0,0,27.183,4.26a17.893,17.893,0,0,0-7.14.914A6.828,6.828,0,0,0,16.172,8.6a.452.452,0,1,1-.816-.389,7.708,7.708,0,0,1,4.357-3.875,17.738,17.738,0,0,1,6.6-.995c-.17-.152-.346-.3-.525-.435l-.01-.009A10.123,10.123,0,0,0,18.347.988a15.559,15.559,0,0,0-8.429,4.04A21.734,21.734,0,0,0,7.242,7.9Zm14.991,5.424a18.034,18.034,0,0,0-7.6,1.337,10.375,10.375,0,0,0-4.648,4.007q.377.83.714,1.668c.249.618.486,1.246.705,1.878l0,.011a.407.407,0,0,1,.027.1h0l0,.009v0a.423.423,0,0,1,0,.143l-.007.033a3.167,3.167,0,0,1-.317.788,1.523,1.523,0,0,1-.675.641l-.026.012a1.4,1.4,0,0,1-.906.057,17.333,17.333,0,0,0,1.147,5.664,9.612,9.612,0,0,0,3.056,4.166,7.542,7.542,0,0,0,4.8,1.525A8.8,8.8,0,0,0,23.54,33.53a10.491,10.491,0,0,0,3.3-4.314A13.3,13.3,0,0,0,27.831,24a1.421,1.421,0,0,1-.946-.046l-.026-.013a1.52,1.52,0,0,1-.675-.641,3.2,3.2,0,0,1-.317-.788.455.455,0,0,1,.022-.295l.005-.011c.256-.739.535-1.466.83-2.187Q27.144,19,27.62,18a7.691,7.691,0,0,0-1.992-2.8,9.554,9.554,0,0,0-3.387-1.872Z" transform="translate(0 0)" fill="currentColor" stroke="currentColor" stroke-width="0.1"/>
  </g>
</svg>
