<svg xmlns="http://www.w3.org/2000/svg" width="37.62" height="37.613" viewBox="734.69 8209.699 37.62 37.613"><g data-name="Multiple Layers (4)"><path d="M767.894 8219.077a112.24 112.24 0 0 0-5.336-.656l-1.1-4.736c-.605-2.613-3.131-4.328-5.81-3.928a117.046 117.046 0 0 0-17.331 3.978c-2.578.807-4.102 3.446-3.493 6.068l1.506 6.486a18.512 18.512 0 0 0 10.154 12.55 18.51 18.51 0 0 0 6.754 7.393c1.66 1.034 4.624 1.53 7.56.556 2.839-.944 5.436-3.067 7.721-6.312a18.409 18.409 0 0 0 3.31-9.308l.468-6.642c.188-2.681-1.73-5.053-4.403-5.449Zm-30.134 6.88-1.506-6.486c-.43-1.857.668-3.76 2.5-4.332a115.438 115.438 0 0 1 17.11-3.928c1.904-.284 3.732.95 4.162 2.807l1.506 6.486c1.433 6.17-.704 12.562-5.433 16.661a6.691 6.691 0 0 1-6.107 1.402 17.067 17.067 0 0 1-12.231-12.61Zm33.07-1.535-.466 6.642a16.947 16.947 0 0 1-3.047 8.566c-2.098 2.982-4.447 4.922-6.982 5.763-3.653 1.213-6.294-.393-6.32-.41a17.048 17.048 0 0 1-5.35-5.28c.314.102.63.197.948.282a8.15 8.15 0 0 0 4.846-.195 5.875 5.875 0 0 0 3.356 1.069c.842 0 2.471-.186 3.918-1.439 1.719-1.486 1.98-3.46 2.02-4.029a.735.735 0 0 0-1.075-.7 8.755 8.755 0 0 1-3.156.997 18.411 18.411 0 0 0 3.572-7.812c.55-.347 1.333-.555 1.963-.507 1.256.098 1.872 1.245 1.875 1.251a.736.736 0 0 0 1.318-.652c-.01-.018-.964-1.898-3.079-2.063-.582-.046-1.221.047-1.82.246.336-3.346-.425-6.1-.443-6.215 1.611.166 3.211.366 4.77.597 1.902.279 3.286 1.988 3.153 3.89Z" fill="#fff" fill-rule="evenodd" data-name="Tracé 1602"/><path d="M753.026 8220.552a.731.731 0 0 0 .698-.51c.004-.012.432-1.243 1.656-1.534a2.225 2.225 0 0 1 2.152.655.735.735 0 1 0 1.068-1.01 3.727 3.727 0 0 0-3.56-1.075c-2.053.489-2.69 2.433-2.715 2.515-.15.472.2.96.7.96Z" fill="#fff" fill-rule="evenodd" data-name="Tracé 1601"/><path d="M745.608 8222.168a.734.734 0 0 0 .03-1.039 3.726 3.726 0 0 0-3.56-1.075c-2.079.495-2.713 2.503-2.719 2.525a.734.734 0 0 0 1.404.435c.016-.047.446-1.241 1.655-1.53a2.222 2.222 0 0 1 2.15.655.737.737 0 0 0 1.04.029Z" fill="#fff" fill-rule="evenodd" data-name="Tracé 1600"/><path d="M752.056 8233.612c3.169-.728 5.163-3.88 4.427-7.05a.732.732 0 0 0-.511-.54.737.737 0 0 0-.72.184c-.542.536-2.05 1.841-4.364 2.396a8.689 8.689 0 0 1-4.965-.257.737.737 0 0 0-.953.862c.741 3.199 3.968 5.126 7.086 4.405Z" fill="#fff" fill-rule="evenodd" data-name="Tracé 1599"/></g></svg>