<svg xmlns="http://www.w3.org/2000/svg" xmlns:xlink="http://www.w3.org/1999/xlink" viewBox="0 0 37.619 37.613">
  <defs>
    <clipPath id="clip-path">
      <rect id="Rectangle_1835" data-name="Rectangle 1835" width="37.619" height="37.613" fill="none"/>
    </clipPath>
  </defs>
  <g id="Groupe_1807" data-name="Groupe 1807" transform="translate(0 0)">
    <g id="Groupe_1806" data-name="Groupe 1806" transform="translate(0 0)" clip-path="url(#clip-path)">
      <path id="Tracé_1599" data-name="Tracé 1599" d="M33.352,49.3a5.88,5.88,0,0,0,4.427-7.051.735.735,0,0,0-1.232-.356,9.494,9.494,0,0,1-4.363,2.4,8.689,8.689,0,0,1-4.965-.257.735.735,0,0,0-.953.862A5.922,5.922,0,0,0,33.352,49.3Z" transform="translate(-15.986 -25.385)" fill="currentColor"/>
      <path id="Tracé_1600" data-name="Tracé 1600" d="M18.142,28.446a.734.734,0,0,0,.029-1.038,3.726,3.726,0,0,0-3.56-1.075,3.974,3.974,0,0,0-2.718,2.524.735.735,0,0,0,1.4.435,2.508,2.508,0,0,1,1.656-1.53,2.222,2.222,0,0,1,2.15.655A.737.737,0,0,0,18.142,28.446Z" transform="translate(-7.224 -15.978)" fill="currentColor"/>
      <path id="Tracé_1601" data-name="Tracé 1601" d="M45.754,22.193a.731.731,0,0,0,.7-.51,2.521,2.521,0,0,1,1.657-1.534,2.225,2.225,0,0,1,2.152.655.735.735,0,1,0,1.068-1.009,3.727,3.727,0,0,0-3.56-1.075,3.949,3.949,0,0,0-2.715,2.515A.736.736,0,0,0,45.754,22.193Z" transform="translate(-27.418 -11.341)" fill="currentColor"/>
      <path id="Tracé_1602" data-name="Tracé 1602" d="M33.2,9.378c-1.742-.258-3.535-.478-5.336-.657l-1.1-4.736A5.17,5.17,0,0,0,20.958.058,117.046,117.046,0,0,0,3.626,4.036,5.142,5.142,0,0,0,.133,10.1L1.639,16.59A18.512,18.512,0,0,0,11.793,29.14a18.51,18.51,0,0,0,6.755,7.393,9.424,9.424,0,0,0,7.559.556c2.839-.944,5.436-3.067,7.721-6.312a18.409,18.409,0,0,0,3.311-9.308l.468-6.641a5.155,5.155,0,0,0-4.4-5.449ZM3.07,16.258,1.564,9.772a3.693,3.693,0,0,1,2.5-4.332,115.438,115.438,0,0,1,17.11-3.928,3.72,3.72,0,0,1,4.162,2.807L26.841,10.8a16.966,16.966,0,0,1-5.433,16.661,6.691,6.691,0,0,1-6.107,1.4A17.067,17.067,0,0,1,3.07,16.258Zm33.07-1.535-.467,6.641a16.947,16.947,0,0,1-3.047,8.566c-2.1,2.983-4.447,4.922-6.982,5.763a7.925,7.925,0,0,1-6.319-.409A17.048,17.048,0,0,1,13.975,30q.469.154.947.283a8.15,8.15,0,0,0,4.846-.2,5.875,5.875,0,0,0,3.357,1.069,5.893,5.893,0,0,0,5.937-5.467.735.735,0,0,0-1.075-.7,8.755,8.755,0,0,1-3.155,1A18.411,18.411,0,0,0,28.4,18.177a3.464,3.464,0,0,1,1.963-.507,2.52,2.52,0,0,1,1.875,1.251.735.735,0,0,0,1.318-.652,4.016,4.016,0,0,0-3.079-2.063,4.733,4.733,0,0,0-1.821.246,19.064,19.064,0,0,0-.443-6.215c1.611.167,3.211.367,4.771.6A3.7,3.7,0,0,1,36.14,14.723Z" transform="translate(0 0)" fill="currentColor"/>
    </g>
  </g>
</svg>
