<svg xmlns="http://www.w3.org/2000/svg" width="30.485" height="30.49" viewBox="192 8213.006 30.485 30.49"><g data-name="Multiple Layers (4)"><path d="M222.483 8223.385v-3.243a.916.916 0 0 0-.012-.133v-.006a.52.52 0 0 0-.048-.137c0-.007 0-.01-.007-.017l-2.974-5.947a1.615 1.615 0 0 0-1.45-.896l-21.501.001c-.62 0-1.175.343-1.45.896l-2.974 5.95s0 .01-.006.017a.79.79 0 0 0-.048.136v.007a.558.558 0 0 0-.013.133v3.243c0 1.025.684 1.894 1.622 2.176v13.39h-.325c-.717 0-1.297.58-1.297 1.298v1.946c0 .717.58 1.297 1.297 1.297h27.89c.717 0 1.298-.58 1.298-1.297v-1.946c0-.717-.58-1.298-1.298-1.298h-.324v-13.39a2.272 2.272 0 0 0 1.622-2.176l-.002-.004Zm-1.297 0a.977.977 0 0 1-.973.973.977.977 0 0 1-.973-.973v-2.594h1.946v2.594Zm-3.243 0a.977.977 0 0 1-.973.973.977.977 0 0 1-.973-.973v-2.594h1.946v2.594Zm-3.243 0a.977.977 0 0 1-.973.973.977.977 0 0 1-.973-.973v-2.594h1.946v2.594Zm-3.243 0a.977.977 0 0 1-.973.973.977.977 0 0 1-.973-.973v-2.594h1.946v2.594Zm-3.243 0a.977.977 0 0 1-.973.973.977.977 0 0 1-.973-.973v-2.594h1.946v2.594Zm-3.243 0a.977.977 0 0 1-.973.973.977.977 0 0 1-.973-.973v-2.594h1.946v2.594Zm-3.243 0a.977.977 0 0 1-.973.973.977.977 0 0 1-.973-.973v-2.594h1.946v2.594Zm-3.243 0a.977.977 0 0 1-.973.973.977.977 0 0 1-.973-.973v-2.594h1.946v2.594Zm-2.283-8.902a.322.322 0 0 1 .289-.179h21.498c.122 0 .233.069.288.18l2.504 5.01h-27.084l2.504-5.01h.001Zm-2.906 8.902v-2.594h1.946v2.594a.977.977 0 0 1-.973.973.977.977 0 0 1-.973-.973m27.89 18.81h-27.89v-1.946h27.89v1.946Zm-17.837-3.243h-5.189v-10.054h5.19v10.054Zm1.298 0v-10.054c0-.717-.58-1.297-1.298-1.297h-5.189c-.717 0-1.297.58-1.297 1.297v10.054h-1.946v-13.39c.373-.11.707-.318.973-.59a2.26 2.26 0 0 0 1.622.683c.636 0 1.21-.262 1.621-.684a2.26 2.26 0 0 0 1.622.684c.636 0 1.21-.262 1.621-.684a2.26 2.26 0 0 0 1.622.684c.636 0 1.21-.262 1.621-.684a2.26 2.26 0 0 0 1.622.684c.636 0 1.21-.262 1.622-.684a2.26 2.26 0 0 0 1.621.684c.636 0 1.21-.262 1.622-.684a2.26 2.26 0 0 0 1.621.684c.636 0 1.21-.262 1.622-.684a2.26 2.26 0 0 0 1.621.684c.636 0 1.21-.262 1.622-.684.266.273.6.476.973.59v13.39h-14.918Z" fill="#fff" fill-rule="evenodd" data-name="Tracé 1589"/><path d="m212.621 8229.846-2.376 2.376a.648.648 0 0 0 .914.917l2.377-2.376a.648.648 0 1 0-.917-.917h.002Z" fill="#fff" fill-rule="evenodd" data-name="Tracé 1592"/><path d="M216.322 8227.601h-8.432c-.717 0-1.298.58-1.298 1.297v5.189c0 .717.58 1.297 1.298 1.297h8.432c.717 0 1.297-.58 1.297-1.297v-5.189c0-.717-.58-1.297-1.297-1.297m-8.432 1.297h8.432v5.189h-8.432v-5.189Z" fill="#fff" fill-rule="evenodd" data-name="Tracé 1590"/><path d="M211.158 8229.846a.649.649 0 0 0-.917 0l-1.19 1.19a.648.648 0 0 0 .914.918l1.19-1.191a.648.648 0 0 0 0-.917h.003Z" fill="#fff" fill-rule="evenodd" data-name="Tracé 1591"/></g></svg>