<svg xmlns="http://www.w3.org/2000/svg" xmlns:xlink="http://www.w3.org/1999/xlink" viewBox="0 0 30.485 30.49">
  <defs>
    <clipPath id="clip-path">
      <rect id="Rectangle_1829" data-name="Rectangle 1829" width="30.485" height="30.49" fill="currentColor"/>
    </clipPath>
  </defs>
  <g id="Groupe_1781" data-name="Groupe 1781" clip-path="url(#clip-path)">
    <path id="Tracé_1589" data-name="Tracé 1589" d="M30.483,10.379V7.136A.916.916,0,0,0,30.471,7V7a.52.52,0,0,0-.048-.137.018.018,0,0,0-.006-.016L27.442.9A1.615,1.615,0,0,0,25.992,0H4.491A1.608,1.608,0,0,0,3.041.9L.067,6.847a.026.026,0,0,1-.006.016A.79.79,0,0,0,.013,7v.006A.558.558,0,0,0,0,7.14v3.243a2.278,2.278,0,0,0,1.622,2.176V25.95H1.3a1.3,1.3,0,0,0-1.3,1.3v1.946a1.3,1.3,0,0,0,1.3,1.3h27.89a1.3,1.3,0,0,0,1.3-1.3V27.247a1.3,1.3,0,0,0-1.3-1.3h-.324V12.559a2.272,2.272,0,0,0,1.622-2.176Zm-1.3,0a.973.973,0,0,1-1.946,0V7.785h1.946Zm-3.243,0a.973.973,0,0,1-1.946,0V7.785h1.946Zm-3.243,0a.973.973,0,1,1-1.946,0V7.785H22.7Zm-3.243,0a.973.973,0,1,1-1.946,0V7.785h1.946Zm-3.243,0a.973.973,0,0,1-1.946,0V7.785h1.946Zm-3.243,0a.973.973,0,0,1-1.946,0V7.785h1.946Zm-3.243,0a.973.973,0,0,1-1.946,0V7.785H9.728Zm-3.243,0a.973.973,0,0,1-1.946,0V7.785H6.485ZM4.2,1.477A.322.322,0,0,1,4.491,1.3h21.5a.322.322,0,0,1,.289.179l2.5,5.01H1.7l2.5-5.01ZM1.3,10.379V7.785H3.242v2.594a.973.973,0,0,1-1.946,0m27.89,18.81H1.3V27.243h27.89ZM11.349,25.946H6.16V15.892h5.189Zm1.3,0V15.892a1.3,1.3,0,0,0-1.3-1.3H6.16a1.3,1.3,0,0,0-1.3,1.3V25.946H2.917V12.555a2.263,2.263,0,0,0,.973-.59,2.264,2.264,0,0,0,3.243,0,2.264,2.264,0,0,0,3.243,0,2.264,2.264,0,0,0,3.243,0,2.264,2.264,0,0,0,3.243,0,2.264,2.264,0,0,0,3.243,0,2.264,2.264,0,0,0,3.243,0,2.264,2.264,0,0,0,3.243,0,2.3,2.3,0,0,0,.973.59v13.39Z" transform="translate(0 0)" fill="currentColor"/>
    <path id="Tracé_1590" data-name="Tracé 1590" d="M54.725,45H46.293A1.3,1.3,0,0,0,45,46.3V51.49a1.3,1.3,0,0,0,1.3,1.3h8.432a1.3,1.3,0,0,0,1.3-1.3V46.3a1.3,1.3,0,0,0-1.3-1.3m-8.432,1.3h8.432V51.49H46.293Z" transform="translate(-30.404 -30.409)" fill="currentColor"/>
    <path id="Tracé_1591" data-name="Tracé 1591" d="M54.287,51.53a.649.649,0,0,0-.917,0l-1.191,1.191a.648.648,0,1,0,.915.917l1.191-1.191a.648.648,0,0,0,0-.917Z" transform="translate(-35.128 -34.69)" fill="currentColor"/>
    <path id="Tracé_1592" data-name="Tracé 1592" d="M58.239,51.53l-2.376,2.376a.648.648,0,1,0,.915.917l2.377-2.376a.649.649,0,1,0-.917-.917Z" transform="translate(-37.618 -34.69)" fill="currentColor"/>
  </g>
</svg>
