<svg id="Groupe_1704" data-name="Groupe 1704" xmlns="http://www.w3.org/2000/svg" xmlns:xlink="http://www.w3.org/1999/xlink" viewBox="0 0 36.928 35.706">
  <defs>
    <clipPath id="clip-path">
      <rect id="Rectangle_1799" data-name="Rectangle 1799" width="36.928" height="35.706" fill="currentColor"/>
    </clipPath>
  </defs>
  <g id="Groupe_1549" data-name="Groupe 1549" clip-path="url(#clip-path)">
    <path id="Tracé_1538" data-name="Tracé 1538" d="M17.941,58.858a1.384,1.384,0,0,1-.8-.213,1.515,1.515,0,0,1-.744-1.328V50.941a1.541,1.541,0,0,1,3.082,0V54.66l9.3-4.995a1.569,1.569,0,0,1,1.488,2.763l-11.53,6.217a1.5,1.5,0,0,1-.8.213" transform="translate(-7.686 -23.152)" fill="currentColor"/>
    <path id="Tracé_1539" data-name="Tracé 1539" d="M25.292,29.436H21.785a1.541,1.541,0,0,1,0-3.082h3.507a8.436,8.436,0,0,0,8.448-8.448V11.583a8.436,8.436,0,0,0-8.448-8.448H11.53a8.436,8.436,0,0,0-8.448,8.448v6.27a8.477,8.477,0,0,0,7.386,8.4,1.578,1.578,0,0,1-.372,3.135A11.591,11.591,0,0,1,0,17.853v-6.27A11.61,11.61,0,0,1,11.583,0H25.345A11.61,11.61,0,0,1,36.928,11.583v6.27A11.622,11.622,0,0,1,25.292,29.436" fill="currentColor"/>
    <path id="Tracé_1540" data-name="Tracé 1540" d="M18.616,27.982H17.341a1.541,1.541,0,0,1,0-3.082h1.275a1.542,1.542,0,0,1,1.541,1.541,1.509,1.509,0,0,1-1.541,1.541" transform="translate(-7.405 -11.67)" fill="currentColor"/>
    <path id="Tracé_1541" data-name="Tracé 1541" d="M33.416,27.982H32.141a1.541,1.541,0,0,1,0-3.082h1.275a1.541,1.541,0,0,1,0,3.082" transform="translate(-14.341 -11.67)" fill="currentColor"/>
    <path id="Tracé_1542" data-name="Tracé 1542" d="M48.116,27.982H46.841a1.541,1.541,0,1,1,0-3.082h1.275a1.541,1.541,0,0,1,0,3.082" transform="translate(-21.23 -11.67)" fill="currentColor"/>
  </g>
</svg>
