<svg xmlns="http://www.w3.org/2000/svg" width="36.928" height="35.706" viewBox="182.536 5264.647 36.928 35.706"><g data-name="Multiple Layers (5)"><path d="M192.79 5300.353c-.265 0-.584-.053-.796-.213-.478-.265-.744-.797-.744-1.328v-6.376a1.542 1.542 0 0 1 3.082 0v3.72l9.298-4.995c.744-.425 1.7-.107 2.125.637.426.744.107 1.7-.637 2.126l-11.53 6.216a1.5 1.5 0 0 1-.797.213" fill="#fff" fill-rule="evenodd" data-name="Tracé 1538"/><path d="M201.611 5280.959h-1.275a1.542 1.542 0 0 1 0-3.082h1.275a1.542 1.542 0 0 1 0 3.082" fill="#fff" fill-rule="evenodd" data-name="Tracé 1541"/><path d="M207.828 5294.083h-3.507a1.542 1.542 0 0 1 0-3.082h3.507a8.436 8.436 0 0 0 8.448-8.448v-6.323a8.436 8.436 0 0 0-8.448-8.448h-13.762a8.436 8.436 0 0 0-8.448 8.448v6.27c0 4.25 3.135 7.81 7.385 8.395.85.106 1.488.903 1.382 1.753-.106.85-.903 1.488-1.754 1.382-5.791-.744-10.095-5.685-10.095-11.53v-6.27c0-6.376 5.207-11.583 11.583-11.583h13.762c6.376 0 11.583 5.207 11.583 11.583v6.27c-.053 6.43-5.207 11.583-11.636 11.583" fill="#fff" fill-rule="evenodd" data-name="Tracé 1539"/><path d="M193.747 5280.959h-1.275a1.542 1.542 0 0 1 0-3.082h1.275c.85 0 1.541.691 1.541 1.541s-.637 1.541-1.54 1.541" fill="#fff" fill-rule="evenodd" data-name="Tracé 1540"/><path d="M209.422 5280.959h-1.276a1.542 1.542 0 0 1 0-3.082h1.276a1.542 1.542 0 0 1 0 3.082" fill="#fff" fill-rule="evenodd" data-name="Tracé 1542"/></g></svg>