<svg id="Groupe_1557" data-name="Groupe 1557" xmlns="http://www.w3.org/2000/svg" xmlns:xlink="http://www.w3.org/1999/xlink" viewBox="0 0 35.921 39.007">
  <defs>
    <clipPath id="clip-path">
      <rect id="Rectangle_1802" data-name="Rectangle 1802" width="35.92" height="39.007" fill="currentColor"/>
    </clipPath>
  </defs>
  <g id="Groupe_1556" data-name="Groupe 1556" transform="translate(0 0)" clip-path="url(#clip-path)">
    <path id="Tracé_1550" data-name="Tracé 1550" d="M12.29,2.786a6.356,6.356,0,0,1,3.2-2.457,6.49,6.49,0,0,1,4.081,0A6.315,6.315,0,0,1,22.6,2.523a14.681,14.681,0,0,1,1.229,2.326A2.685,2.685,0,0,0,25.323,6.3a2.773,2.773,0,0,0,1.58.176,11.4,11.4,0,0,1,2.721-.219,6.052,6.052,0,0,1,4.344,2.238,6.42,6.42,0,0,1,1.492,3.6,6.57,6.57,0,0,1-.483,3.028,18.473,18.473,0,0,1-1.58,2.5,2.75,2.75,0,0,0-.088,2.545,3.959,3.959,0,0,0,.614.878c.263.307.483.614.746.921a6.1,6.1,0,0,1,1.185,2.852,6.274,6.274,0,0,1-.483,3.466,6.337,6.337,0,0,1-2.984,3.159,5.837,5.837,0,0,1-3.335.614c-.527-.044-1.053-.088-1.536-.132a2.776,2.776,0,0,0-2.369,1.141,4.176,4.176,0,0,0-.527,1.1c-.132.351-.263.658-.395,1.009A6.229,6.229,0,0,1,21.9,37.934l-.351.219a6.514,6.514,0,0,1-5.266.527,6.128,6.128,0,0,1-3.028-2.238,20.843,20.843,0,0,1-1.36-2.589A2.769,2.769,0,0,0,9.7,32.493a5.391,5.391,0,0,0-1.185.088,10.752,10.752,0,0,1-1.667.176A6.216,6.216,0,0,1,4.655,32.4a6.523,6.523,0,0,1-3.466-2.94A6.323,6.323,0,0,1,.4,25.911a6.494,6.494,0,0,1,1.1-3.072c.307-.439.57-.834.878-1.272a2.612,2.612,0,0,0,.483-1.711,2.868,2.868,0,0,0-.57-1.536c-.307-.395-.658-.834-.965-1.229A6.4,6.4,0,0,1,3.6,7.481a6.571,6.571,0,0,1,3.159-.614c.483.044.921.088,1.4.088a2.392,2.392,0,0,0,.965-.044,2.722,2.722,0,0,0,1.887-1.492A28.667,28.667,0,0,1,12.29,2.786m3.6,1.316a3.094,3.094,0,0,0-.921,1.185c-.176.483-.395.921-.57,1.4a5.63,5.63,0,0,1-1.1,1.755,6.5,6.5,0,0,1-4.651,2.194c-.439,0-.921-.044-1.36-.088a4.5,4.5,0,0,0-1.711.044,2.774,2.774,0,0,0-1.492,4.3l1.053,1.316a6.177,6.177,0,0,1,1.272,3.6,6.261,6.261,0,0,1-1.053,3.73c-.307.439-.614.878-.878,1.316a2.253,2.253,0,0,0-.439,1.053,2.845,2.845,0,0,0,1.316,2.9,2.716,2.716,0,0,0,1.755.351c.483-.088.965-.132,1.492-.219A6.371,6.371,0,0,1,15.23,32.4c.263.483.483,1.009.746,1.536a2.664,2.664,0,0,0,1.273,1.229,2.864,2.864,0,0,0,2.326.044,2.911,2.911,0,0,0,1.448-1.536c.176-.483.395-.921.57-1.4A6.379,6.379,0,0,1,24.313,29.2a6.275,6.275,0,0,1,3.554-.834l1.58.132a2.376,2.376,0,0,0,1.36-.263,2.81,2.81,0,0,0,1.053-4.169l-1.053-1.316a6.338,6.338,0,0,1-1.273-3.818,6.562,6.562,0,0,1,.965-3.379c.351-.527.746-1.053,1.1-1.58a2.709,2.709,0,0,0-.921-3.774,2.51,2.51,0,0,0-1.58-.395,21.621,21.621,0,0,1-2.9.307,7.2,7.2,0,0,1-1.931-.395,6.367,6.367,0,0,1-3.2-2.677c-.351-.658-.658-1.36-1.009-2.018a2.518,2.518,0,0,0-.878-.921,2.908,2.908,0,0,0-3.291,0" transform="translate(0 0)" fill="currentColor"/>
    <path id="Tracé_1551" data-name="Tracé 1551" d="M28.9,31.11a6.681,6.681,0,0,1,4.037-1.36,6.16,6.16,0,0,1,3.774,1.316,6.541,6.541,0,0,1,2.457,3.905,6.277,6.277,0,0,1-.483,3.905,6.385,6.385,0,0,1-2.808,2.984,6.556,6.556,0,0,1-4.081.7,6.72,6.72,0,0,1-3.466-1.755,6.469,6.469,0,0,1-1.141-7.723A6.126,6.126,0,0,1,28.9,31.11m1.887,2.545A3.2,3.2,0,0,0,29.6,36.683,3.243,3.243,0,0,0,30.742,38.7a3.329,3.329,0,0,0,2.194.746,3.285,3.285,0,0,0,1.975-.7,3.157,3.157,0,0,0,1.141-3.072A3.2,3.2,0,0,0,34.867,33.7a3.291,3.291,0,0,0-2.194-.7,2.994,2.994,0,0,0-1.887.658" transform="translate(-14.81 -16.696)" fill="currentColor"/>
  </g>
</svg>
