<svg xmlns="http://www.w3.org/2000/svg" width="35.92" height="39.007" viewBox="1194.703 5988.626 35.92 39.007"><g data-name="Multiple Layers (2)"><path d="M1206.994 5991.413c.746-1.141 1.93-2.019 3.203-2.458a6.49 6.49 0 0 1 4.08 0 6.315 6.315 0 0 1 3.028 2.194c.527.703.834 1.536 1.229 2.326.263.658.834 1.185 1.492 1.448.483.22 1.053.263 1.58.176.921-.132 1.799-.308 2.72-.22a6.052 6.052 0 0 1 4.344 2.238c.834 1.01 1.404 2.282 1.492 3.598a6.57 6.57 0 0 1-.483 3.028c-.395.921-1.053 1.667-1.58 2.5-.438.79-.482 1.756-.087 2.546.132.307.395.614.614.878.263.307.483.614.746.921.614.834 1.053 1.799 1.185 2.852.175 1.185 0 2.37-.483 3.467-.57 1.36-1.667 2.5-2.984 3.159a5.837 5.837 0 0 1-3.334.614c-.527-.044-1.053-.088-1.536-.131-.922-.044-1.843.395-2.37 1.14-.263.351-.395.746-.526 1.097-.132.351-.263.659-.395 1.01a6.23 6.23 0 0 1-2.326 2.764l-.35.22c-1.58.92-3.555 1.096-5.266.526a6.128 6.128 0 0 1-3.028-2.238c-.57-.79-.921-1.755-1.36-2.589-.439-.79-1.273-1.272-2.194-1.36-.395-.044-.79.044-1.185.088-.57.088-1.097.175-1.667.175-.746 0-1.492-.087-2.194-.35-1.448-.527-2.72-1.58-3.467-2.94a6.323 6.323 0 0 1-.79-3.555c.088-1.097.483-2.15 1.097-3.071.308-.44.57-.834.878-1.273a2.612 2.612 0 0 0 .483-1.711c-.044-.527-.22-1.097-.57-1.536-.308-.395-.659-.834-.966-1.229-.658-.877-1.141-1.93-1.273-3.071a6.365 6.365 0 0 1 .834-3.993c.614-1.097 1.58-1.975 2.72-2.545.966-.483 2.107-.658 3.16-.614.483.043.921.087 1.404.087.307.044.658.044.965-.044a2.722 2.722 0 0 0 1.887-1.492c.439-.79.702-1.799 1.273-2.632m3.598 1.316a3.094 3.094 0 0 0-.922 1.185c-.175.483-.395.921-.57 1.404a5.63 5.63 0 0 1-1.097 1.755 6.504 6.504 0 0 1-4.651 2.194c-.44 0-.922-.044-1.36-.088-.571-.044-1.141-.131-1.712.044a2.767 2.767 0 0 0-2.018 2.545c-.044.615.175 1.273.526 1.755l1.053 1.317c.79 1.009 1.229 2.282 1.273 3.598.044 1.316-.307 2.633-1.053 3.73-.307.438-.615.877-.878 1.316-.22.307-.395.658-.439 1.053-.219 1.097.351 2.326 1.317 2.896.526.307 1.14.439 1.755.351.483-.088.965-.131 1.492-.22a6.427 6.427 0 0 1 3.51.483c1.317.57 2.457 1.668 3.116 2.984.263.483.482 1.01.746 1.536.263.527.702.965 1.272 1.229.746.35 1.58.35 2.326.044a2.91 2.91 0 0 0 1.448-1.536c.175-.483.395-.922.57-1.404a6.379 6.379 0 0 1 2.72-3.072 6.275 6.275 0 0 1 3.555-.834l1.58.132c.482.044.965-.044 1.36-.263.921-.44 1.536-1.404 1.58-2.414.043-.614-.176-1.228-.527-1.755l-1.053-1.316a6.338 6.338 0 0 1-1.273-3.818c0-1.184.351-2.37.966-3.378.35-.527.746-1.053 1.097-1.58.395-.614.482-1.36.35-2.018a2.737 2.737 0 0 0-1.272-1.756 2.51 2.51 0 0 0-1.58-.395c-.965.088-1.93.351-2.896.308a7.196 7.196 0 0 1-1.93-.395c-1.317-.483-2.457-1.448-3.203-2.677-.351-.658-.659-1.36-1.01-2.018-.219-.351-.482-.702-.877-.922-1.01-.702-2.37-.658-3.291 0" fill="#fff" fill-rule="evenodd" data-name="Tracé 1550"/><path d="M1208.793 6003.04a6.68 6.68 0 0 1 4.037-1.36c1.36 0 2.72.483 3.773 1.317a6.541 6.541 0 0 1 2.458 3.905 6.277 6.277 0 0 1-.483 3.905 6.385 6.385 0 0 1-2.808 2.984 6.556 6.556 0 0 1-4.081.702 6.72 6.72 0 0 1-3.467-1.755 6.345 6.345 0 0 1-1.886-3.817 6.404 6.404 0 0 1 .745-3.906 6.126 6.126 0 0 1 1.712-1.974m1.887 2.545c-.922.702-1.36 1.887-1.185 3.027.131.79.526 1.536 1.14 2.019.615.483 1.405.79 2.195.746.702 0 1.404-.263 1.974-.702.922-.702 1.36-1.93 1.141-3.072a3.198 3.198 0 0 0-1.185-1.974 3.291 3.291 0 0 0-2.194-.702c-.658 0-1.36.219-1.886.658" fill="#fff" fill-rule="evenodd" data-name="Tracé 1551"/></g></svg>