<svg xmlns="http://www.w3.org/2000/svg" xmlns:xlink="http://www.w3.org/1999/xlink" viewBox="0 0 38 32">
  <defs>
    <clipPath id="clip-path">
      <rect id="Rectangle_1813" data-name="Rectangle 1813" width="38" height="32" transform="translate(-0.068 -0.057)" fill="currentColor"/>
    </clipPath>
  </defs>
  <g id="Groupe_1697" data-name="Groupe 1697" transform="translate(0.839 -0.427)">
    <g id="Groupe_1696" data-name="Groupe 1696" transform="translate(-0.771 0.485)" clip-path="url(#clip-path)">
      <path id="Tracé_1579" data-name="Tracé 1579" d="M10.7,8.231a3.292,3.292,0,1,0,3.292,3.292A3.3,3.3,0,0,0,10.7,8.231m0-3.292a6.584,6.584,0,1,1-6.584,6.584A6.587,6.587,0,0,1,10.7,4.938M21.4,31.276a1.646,1.646,0,1,1-3.292,0V24.221a1.181,1.181,0,0,0-1.184-1.175H4.476a1.181,1.181,0,0,0-1.184,1.175v7.055a1.646,1.646,0,1,1-3.292,0V24.221a4.472,4.472,0,0,1,4.476-4.468H16.924A4.472,4.472,0,0,1,21.4,24.221ZM25.515,0A6.584,6.584,0,1,1,18.93,6.584,6.587,6.587,0,0,1,25.515,0m0,3.292a3.292,3.292,0,1,0,3.292,3.292,3.3,3.3,0,0,0-3.292-3.292m10.7,23.046a1.646,1.646,0,1,1-3.292,0V19.283a1.181,1.181,0,0,0-1.184-1.175H20.577a1.646,1.646,0,1,1,0-3.292H31.739a4.472,4.472,0,0,1,4.476,4.468Z" transform="translate(0.825 -0.518)" fill="currentColor"/>
    </g>
  </g>
</svg>
