<svg xmlns="http://www.w3.org/2000/svg" width="36.215" height="32.922" viewBox="0.825 -0.518 36.215 32.922"><path d="M11.525 7.712a3.296 3.296 0 0 0-3.292 3.293 3.296 3.296 0 0 0 3.292 3.292 3.296 3.296 0 0 0 3.292-3.292 3.296 3.296 0 0 0-3.292-3.293m0-3.292a6.587 6.587 0 0 1 6.584 6.585 6.587 6.587 0 0 1-6.584 6.584 6.587 6.587 0 0 1-6.585-6.584 6.587 6.587 0 0 1 6.585-6.585m10.7 26.338a1.647 1.647 0 0 1-3.293 0v-7.055c0-.647-.53-1.176-1.183-1.176H5.3c-.654 0-1.184.529-1.184 1.176v7.055a1.647 1.647 0 0 1-3.292 0v-7.055a4.472 4.472 0 0 1 4.476-4.468h12.448c2.47 0 4.476 2 4.476 4.468v7.055ZM26.34-.518a6.587 6.587 0 0 1 6.584 6.584 6.587 6.587 0 0 1-6.584 6.585 6.587 6.587 0 0 1-6.585-6.585A6.587 6.587 0 0 1 26.34-.518m0 3.292a3.296 3.296 0 0 0-3.292 3.292 3.296 3.296 0 0 0 3.292 3.292 3.296 3.296 0 0 0 3.292-3.292 3.296 3.296 0 0 0-3.292-3.292m10.7 23.046a1.647 1.647 0 0 1-3.293 0v-7.056c0-.647-.53-1.175-1.183-1.175H21.4a1.647 1.647 0 0 1 0-3.292h11.163c2.47 0 4.476 2 4.476 4.467v7.056Z" fill="#fff" fill-rule="evenodd" data-name="Tracé 1579"/></svg>