<svg xmlns="http://www.w3.org/2000/svg" width="29.588" height="40.057" viewBox="-0.801 -0.131 29.588 40.057"><g data-name="Tracé 1578"><path d="M27.922 12.204h-5.007V8.563c0-4.507-3.688-8.194-8.194-8.194S6.527 4.056 6.527 8.563v3.641H1.065c-.774 0-1.366.592-1.366 1.366v22.76a4.08 4.08 0 0 0 4.097 4.097h21.395a4.08 4.08 0 0 0 4.096-4.097V13.57c0-.774-.591-1.366-1.365-1.366M9.259 8.563c0-3.005 2.458-5.463 5.462-5.463 3.004 0 5.462 2.458 5.462 5.463v3.641H9.26V8.563ZM26.556 36.33c0 .774-.592 1.366-1.365 1.366H3.796a1.341 1.341 0 0 1-1.365-1.366V14.936h4.096v5.007c0 .774.592 1.365 1.366 1.365.774 0 1.366-.591 1.366-1.365v-5.007h10.924v5.007c0 .774.592 1.365 1.366 1.365.774 0 1.366-.591 1.366-1.365v-5.007h3.641V36.33Z" fill="#fff" fill-rule="evenodd"/><path d="M27.922 12.204h-5.007V8.563c0-4.507-3.688-8.194-8.194-8.194S6.527 4.056 6.527 8.563v3.641H1.065c-.774 0-1.366.592-1.366 1.366v22.76a4.08 4.08 0 0 0 4.097 4.097h21.395a4.08 4.08 0 0 0 4.096-4.097V13.57c0-.774-.591-1.366-1.365-1.366M9.259 8.563c0-3.005 2.458-5.463 5.462-5.463 3.004 0 5.462 2.458 5.462 5.463v3.641H9.26V8.563ZM26.556 36.33c0 .774-.592 1.366-1.365 1.366H3.796a1.341 1.341 0 0 1-1.365-1.366V14.936h4.096v5.007c0 .774.592 1.365 1.366 1.365.774 0 1.366-.591 1.366-1.365v-5.007h10.924v5.007c0 .774.592 1.365 1.366 1.365.774 0 1.366-.591 1.366-1.365v-5.007h3.641V36.33Z" stroke-linejoin="round" stroke-linecap="round" stroke="#fff" fill="transparent"/></g></svg>