<svg xmlns="http://www.w3.org/2000/svg" xmlns:xlink="http://www.w3.org/1999/xlink" viewBox="0 0 29 40">
  <defs>
    <clipPath id="clip-path">
      <rect id="Rectangle_1812" data-name="Rectangle 1812" width="29" height="40" transform="translate(-0.007 0.398)" fill="currentColor"/>
    </clipPath>
  </defs>
  <g id="Groupe_1841" data-name="Groupe 1841" transform="translate(-1392 -186.812)">
    <g id="Groupe_1694" data-name="Groupe 1694" transform="translate(1391.787 186.809)">
      <g id="Groupe_1693" data-name="Groupe 1693" transform="translate(0.22 -0.394)" clip-path="url(#clip-path)">
        <path id="Tracé_1578" data-name="Tracé 1578" d="M28.222,11.835H23.215V8.194a8.194,8.194,0,1,0-16.387,0v3.642H1.366A1.341,1.341,0,0,0,0,13.2v22.76a4.08,4.08,0,0,0,4.1,4.1H25.491a4.08,4.08,0,0,0,4.1-4.1V13.2a1.341,1.341,0,0,0-1.366-1.366M9.559,8.194a5.462,5.462,0,1,1,10.925,0v3.642H9.559Zm17.3,27.767a1.341,1.341,0,0,1-1.366,1.366H4.1a1.341,1.341,0,0,1-1.366-1.366V14.566h4.1v5.007a1.366,1.366,0,0,0,2.731,0V14.566H20.484v5.007a1.366,1.366,0,0,0,2.731,0V14.566h3.642Z" transform="translate(-0.301 0.369)" fill="currentColor"/>
        <path id="Tracé_1578_-_Contour" data-name="Tracé 1578 - Contour" d="M15.022-.5a8.718,8.718,0,0,1,8.694,8.694v3.142h4.507A1.846,1.846,0,0,1,30.088,13.2v22.76a4.58,4.58,0,0,1-4.6,4.6H4.1a4.58,4.58,0,0,1-4.6-4.6V13.2a1.846,1.846,0,0,1,1.866-1.866H6.328V8.194A8.718,8.718,0,0,1,15.022-.5Zm10.47,40.058a3.58,3.58,0,0,0,3.6-3.6V13.2a.837.837,0,0,0-.866-.866H22.715V8.194a7.694,7.694,0,0,0-15.387,0v4.142H1.366A.837.837,0,0,0,.5,13.2v22.76a3.58,3.58,0,0,0,3.6,3.6ZM15.022,2.231a5.969,5.969,0,0,1,5.962,5.962v4.142H9.059V8.194A5.969,5.969,0,0,1,15.022,2.231Zm4.962,9.1V8.194a4.962,4.962,0,1,0-9.925,0v3.142ZM2.231,14.066h5.1v5.507a.866.866,0,1,0,1.731,0V14.066H20.984v5.507a.866.866,0,1,0,1.731,0V14.066h4.642V35.961a1.846,1.846,0,0,1-1.866,1.866H4.1a1.846,1.846,0,0,1-1.866-1.866Zm4.1,1h-3.1V35.961a.837.837,0,0,0,.866.866H25.491a.837.837,0,0,0,.866-.866V15.066H23.715v4.507a1.866,1.866,0,1,1-3.731,0V15.066H10.059v4.507a1.866,1.866,0,1,1-3.731,0Z" transform="translate(-0.301 0.369)" fill="currentColor"/>
      </g>
    </g>
  </g>
</svg>
