<svg xmlns="http://www.w3.org/2000/svg" xmlns:xlink="http://www.w3.org/1999/xlink" viewBox="0 0 31 31">
  <defs>
    <clipPath id="clip-path">
      <rect id="Rectangle_1834" data-name="Rectangle 1834" width="31" height="31" transform="translate(0.074 0.074)" fill="none"/>
    </clipPath>
  </defs>
  <g id="Groupe_1804" data-name="Groupe 1804" transform="translate(-0.268 0.009)">
    <g id="Groupe_1803" data-name="Groupe 1803" transform="translate(0.195 -0.083)" clip-path="url(#clip-path)">
      <path id="Tracé_1598" data-name="Tracé 1598" d="M15.629,0A15.629,15.629,0,1,0,31.258,15.629,15.647,15.647,0,0,0,15.629,0M9.016,25.427a18.036,18.036,0,0,1-2.11,1.547A14.2,14.2,0,0,1,1.319,15.629q0-.447.028-.9A19.164,19.164,0,0,0,9.016,25.427m12.972,3.024a19.169,19.169,0,0,0,5.426-11.916,16.977,16.977,0,0,1,2.38,1.132,14.348,14.348,0,0,1-7.806,10.785M10.521,4.97a16.89,16.89,0,0,1-.21-2.629,14.329,14.329,0,0,1,13.24,1.37,19.174,19.174,0,0,0-13.03,1.26m10.326,4a19.222,19.222,0,0,0-8.234,1.841,16.683,16.683,0,0,1-1.824-4.5,18.051,18.051,0,0,1,15.494-.227,14.2,14.2,0,0,1,2.825,4.738,19.289,19.289,0,0,0-8.262-1.849M13.573,19.471A17.92,17.92,0,0,1,5.98,5.062a14.33,14.33,0,0,1,2.9-2.054,19.52,19.52,0,0,0,2.566,8.428,18.7,18.7,0,0,0,3.42,4.291,18.06,18.06,0,0,1-1.289,3.744m-3.56,5.038A18.045,18.045,0,0,1,2.028,11.17a14.19,14.19,0,0,1,2.692-4.8,19.344,19.344,0,0,0,8.241,14.284,17.815,17.815,0,0,1-2.947,3.858M16.1,16.25a17.534,17.534,0,0,1,3.89-.777,17.912,17.912,0,0,1-8.688,13.8,14.232,14.232,0,0,1-3.221-1.487A19.138,19.138,0,0,0,16.1,16.25m5.218-.831h.04a16.99,16.99,0,0,1,4.771.681,18.051,18.051,0,0,1-7.555,13.537,14.477,14.477,0,0,1-5.509.072,19.342,19.342,0,0,0,8.253-14.29m-7.984-3.491a17.921,17.921,0,0,1,16.279.63,14.367,14.367,0,0,1,.331,3.071c0,.2,0,.4-.013.605a18.343,18.343,0,0,0-13.989-1.317,17.913,17.913,0,0,1-2.608-2.99" transform="translate(-0.173 0.063)" fill="currentColor"/>
    </g>
  </g>
</svg>
