<svg xmlns="http://www.w3.org/2000/svg" width="31.258" height="31.258" viewBox="-0.173 0.063 31.258 31.258"><path d="M15.456.063C6.838.063-.174 7.074-.174 15.692c0 8.618 7.012 15.629 15.63 15.629 8.617 0 15.628-7.011 15.628-15.63 0-8.617-7.01-15.628-15.628-15.628M8.843 25.489a18.036 18.036 0 0 1-2.11 1.547c-3.553-2.734-5.588-6.862-5.588-11.344 0-.299.01-.598.028-.898a19.164 19.164 0 0 0 7.67 10.695m12.972 3.025a19.169 19.169 0 0 0 5.426-11.917c.82.315 1.619.695 2.38 1.132-.664 4.656-3.613 8.7-7.806 10.785M10.348 5.032a16.89 16.89 0 0 1-.21-2.629 14.224 14.224 0 0 1 5.318-1.022c2.855 0 5.574.824 7.922 2.392a19.174 19.174 0 0 0-13.03 1.26m10.326 3.996c-2.823 0-5.646.613-8.234 1.84a16.683 16.683 0 0 1-1.824-4.502c4.82-2.4 10.599-2.487 15.494-.228a14.202 14.202 0 0 1 2.825 4.739 19.29 19.29 0 0 0-8.261-1.85M13.4 19.535A17.92 17.92 0 0 1 5.806 5.125a14.33 14.33 0 0 1 2.898-2.054A19.52 19.52 0 0 0 11.27 11.5c.907 1.571 2.026 2.976 3.42 4.291a18.06 18.06 0 0 1-1.29 3.744m-3.56 5.038c-4.515-2.975-7.495-7.95-7.985-13.34A14.19 14.19 0 0 1 4.547 6.43c.46 5.718 3.516 11.022 8.24 14.284a17.815 17.815 0 0 1-2.947 3.858m6.082-8.26c1.364-.425 2.608-.673 3.89-.776a17.912 17.912 0 0 1-8.688 13.799 14.232 14.232 0 0 1-3.221-1.487 19.138 19.138 0 0 0 8.019-11.535m5.218-.831h.04c1.62 0 3.225.229 4.77.68-.331 5.378-3.147 10.428-7.554 13.537a14.477 14.477 0 0 1-5.51.072c4.727-3.26 7.794-8.562 8.254-14.29m-7.984-3.49a17.921 17.921 0 0 1 16.279.63 14.367 14.367 0 0 1 .317 3.676 18.31 18.31 0 0 0-8.588-2.131c-1.818 0-3.64.269-5.4.814a17.913 17.913 0 0 1-2.608-2.99" fill="#fff" fill-rule="evenodd" data-name="Tracé 1598"/></svg>